<?xml version="1.0" encoding="iso-8859-1"?><!DOCTYPE svg PUBLIC "-//W3C//DTD SVG 1.1//EN" "http://www.w3.org/Graphics/SVG/1.1/DTD/svg11.dtd"><svg viewBox="0 0 612 612" xmlns="http://www.w3.org/2000/svg" xmlns:xlink="http://www.w3.org/1999/xlink"><style>:root>svg{display:none}:root>svg:target{display:block}</style><svg viewBox="0 0 451.847 451.847" id="arrowDownIcon" xmlns="http://www.w3.org/2000/svg"><path d="M225.923 354.706c-8.098 0-16.195-3.092-22.369-9.263L9.27 151.157c-12.359-12.359-12.359-32.397 0-44.751 12.354-12.354 32.388-12.354 44.748 0l171.905 171.915 171.906-171.909c12.359-12.354 32.391-12.354 44.744 0 12.365 12.354 12.365 32.392 0 44.751L248.292 345.449c-6.177 6.172-14.274 9.257-22.369 9.257z" fill="#fff"/></svg><svg fill="none" viewBox="0 0 8 8" id="breadcrumbs" xmlns="http://www.w3.org/2000/svg"><g clip-path="url(#bclip0)"><path d="M3.804 4a.33.33 0 00-.094-.262L.737.769a.337.337 0 00-.475.475L3.022 4 .263 6.757a.337.337 0 00.475.474L3.71 4.263A.33.33 0 003.804 4zm3.938-.262L4.097.098a.337.337 0 00-.475 0 .335.335 0 000 .475L7.055 4 3.622 7.427a.335.335 0 10.475.475l3.645-3.64A.33.33 0 007.835 4a.329.329 0 00-.093-.262z" fill="#333"/></g><defs><clipPath id="bclip0"><path fill="#fff" d="M0 0h8v8H0z"/></clipPath></defs></svg><svg viewBox="0 0 184 184" id="emailIcon" xmlns="http://www.w3.org/2000/svg"><path d="M160.746 24.61H23.254C10.432 24.61 0 35.042 0 47.864v88.271c0 12.822 10.432 23.254 23.254 23.254h137.492c12.822 0 23.254-10.432 23.254-23.254V47.864c0-12.822-10.432-23.254-23.254-23.254zm-3.633 15L92 89.909 26.887 39.61h130.226zm3.633 104.78H23.254c-4.551 0-8.254-3.703-8.254-8.254V49.382l72.415 55.94c1.35 1.043 2.968 1.564 4.585 1.564s3.235-.521 4.585-1.564L169 49.382v86.753c0 4.552-3.703 8.255-8.254 8.255z" fill="#e33535"/></svg><svg fill="none" viewBox="0 0 20 21" id="favorites" xmlns="http://www.w3.org/2000/svg"><g clip-path="url(#dclip0)"><path d="M4.477 20.589c-.22 0-.437-.07-.623-.206a1.09 1.09 0 01-.413-1.115l1.287-5.76L.364 9.62a1.09 1.09 0 01-.312-1.147c.132-.412.49-.703.915-.743l5.773-.532L9.023 1.77c.168-.4.551-.657.977-.657.426 0 .81.258.978.656l2.282 5.429 5.773.532c.425.04.783.331.915.743.132.411.01.863-.31 1.147l-4.364 3.888 1.286 5.759c.095.424-.067.861-.413 1.115a1.047 1.047 0 01-1.168.052L10 17.41l-4.978 3.025a1.052 1.052 0 01-.545.153zM10 16.109c.19 0 .377.051.545.153l4.699 2.855-1.215-5.436a1.09 1.09 0 01.337-1.052l4.12-3.672-5.45-.503a1.063 1.063 0 01-.884-.654L10 2.677 7.846 7.801a1.06 1.06 0 01-.88.652l-5.453.503 4.12 3.671c.295.263.425.666.337 1.054l-1.213 5.435 4.698-2.854c.168-.102.356-.153.545-.153zM6.696 7.303v.001-.001zm6.607-.003v0z" fill="#fff"/></g><defs><clipPath id="dclip0"><path fill="#fff" transform="translate(0 .677)" d="M0 0h20v20.323H0z"/></clipPath></defs></svg><svg fill="none" viewBox="0 0 20 20" id="favorites_active" xmlns="http://www.w3.org/2000/svg"><g clip-path="url(#eclip0)"><path d="M19.948 7.671a1.062 1.062 0 00-.915-.73l-5.773-.524-2.282-5.342a1.063 1.063 0 00-1.956 0L6.741 6.417l-5.775.524a1.065 1.065 0 00-.604 1.86l4.364 3.827-1.286 5.668a1.063 1.063 0 001.581 1.149L10 16.468l4.977 2.977a1.062 1.062 0 001.583-1.15l-1.287-5.667 4.364-3.827c.32-.28.442-.724.31-1.13z" fill="#E33535"/></g><defs><clipPath id="eclip0"><path fill="#fff" d="M0 0h20v20H0z"/></clipPath></defs></svg><svg fill="none" viewBox="0 0 30 30" id="favorites_product" xmlns="http://www.w3.org/2000/svg"><g clip-path="url(#fclip0)"><path d="M6.715 29.393a1.595 1.595 0 01-1.554-1.95l1.93-8.501-6.545-5.74a1.594 1.594 0 01.904-2.79l8.66-.787 3.424-8.012a1.594 1.594 0 012.932-.002l3.424 8.014 8.66.787a1.592 1.592 0 011.372 1.096 1.593 1.593 0 01-.466 1.694L22.91 18.94l1.93 8.5a1.594 1.594 0 01-2.372 1.724L15 24.701l-7.468 4.465c-.252.15-.533.226-.817.226zM15 22.78c.284 0 .565.077.818.227l7.047 4.215-1.821-8.024a1.595 1.595 0 01.505-1.554l6.18-5.42-8.176-.743a1.593 1.593 0 01-1.325-.966L15 2.952l-3.231 7.563a1.588 1.588 0 01-1.321.963l-8.178.742 6.18 5.42c.443.388.636.983.505 1.555l-1.82 8.024 7.048-4.213c.252-.15.533-.227.817-.227zM10.044 9.78s0 .002-.002.003l.002-.003zm9.91-.003l.001.002-.001-.002z" fill="#0D0E0F"/></g><defs><clipPath id="fclip0"><path fill="#fff" d="M0 0h30v30H0z"/></clipPath></defs></svg><svg fill="none" viewBox="0 0 20 20" id="favorites_white" xmlns="http://www.w3.org/2000/svg"><path d="M4.477 19.589c-.22 0-.437-.07-.623-.206a1.09 1.09 0 01-.413-1.115l1.286-5.76L.364 8.62a1.09 1.09 0 01-.312-1.147c.132-.412.49-.703.915-.743l5.773-.532L9.023.77c.168-.4.551-.657.977-.657.426 0 .81.258.978.656l2.282 5.429 5.773.532c.425.04.783.331.915.743s.01.863-.31 1.147l-4.365 3.888 1.287 5.759c.095.424-.067.861-.413 1.115a1.047 1.047 0 01-1.168.052L10 16.41l-4.978 3.025a1.052 1.052 0 01-.545.153zM10 15.109c.19 0 .377.051.545.153l4.699 2.855-1.215-5.436a1.09 1.09 0 01.337-1.052l4.12-3.672-5.45-.503a1.063 1.063 0 01-.884-.654L10 1.677 7.846 6.801a1.06 1.06 0 01-.88.652l-5.453.503 4.12 3.671c.295.263.424.666.337 1.054l-1.213 5.435 4.698-2.854c.168-.102.356-.153.545-.153zM6.696 6.303l-.001.001v-.001zm6.607-.003v0z" fill="#F5F5F5"/></svg><svg fill="none" viewBox="0 0 17 19" id="feature_box" xmlns="http://www.w3.org/2000/svg"><path clip-rule="evenodd" d="M16.366 4.727L8.61.982a.25.25 0 00-.218 0L.634 4.727a.25.25 0 00-.142.226v9.095a.25.25 0 00.142.225l7.757 3.745a.25.25 0 00.218 0l7.757-3.745a.25.25 0 00.142-.225V4.953a.25.25 0 00-.142-.226v0zM8.5 1.485l7.182 3.468L13.6 5.958a.25.25 0 00-.042-.027L6.425 2.487 8.5 1.485v0zM5.86 2.77l7.17 3.462-1.468.71L4.394 3.48l1.465-.71zm7.338 3.937v2.621l-1.372.663V7.37l1.372-.663zm2.81 7.184L8.75 17.394v-8.54l1.731-.835a.25.25 0 00-.217-.45l-1.764.85-.694-.334a.25.25 0 10-.218.45l.662.32v8.539L.993 13.89V5.35L6.519 8.02a.249.249 0 00.334-.116.25.25 0 00-.117-.335L1.318 4.953l2.486-1.2 7.519 3.629.003.004v3.003a.25.25 0 00.36.226l1.872-.904a.25.25 0 00.141-.226v-3.02l2.308-1.114v8.54z" stroke="#FEFEFE" stroke-width=".353" stroke-miterlimit="22.926" stroke-linejoin="round"/><path fill-rule="evenodd" clip-rule="evenodd" d="M16.366 4.727L8.61.982a.25.25 0 00-.218 0L.634 4.727a.25.25 0 00-.142.226v9.095a.25.25 0 00.142.225l7.757 3.745a.25.25 0 00.218 0l7.757-3.745a.25.25 0 00.142-.225V4.953a.25.25 0 00-.142-.226zM8.5 1.485l7.182 3.468L13.6 5.958a.25.25 0 00-.042-.027L6.425 2.487 8.5 1.485zM5.86 2.77l7.17 3.462-1.468.71L4.394 3.48l1.465-.71zm7.338 3.937v2.621l-1.372.663V7.37l1.372-.663zm2.81 7.184L8.75 17.394v-8.54l1.731-.835a.25.25 0 00-.217-.45l-1.764.85-.694-.334a.25.25 0 10-.218.45l.662.32v8.539L.993 13.89V5.35L6.519 8.02a.249.249 0 00.334-.116.25.25 0 00-.117-.335L1.318 4.953l2.486-1.2 7.519 3.629.003.004v3.003a.25.25 0 00.36.226l1.872-.904a.25.25 0 00.141-.226v-3.02l2.308-1.114v8.54z" fill="#FEFEFE"/><path clip-rule="evenodd" d="M3.058 12.92l-1.138-.55a.25.25 0 10-.218.451l1.138.55a.25.25 0 10.218-.451v0z" stroke="#FEFEFE" stroke-width=".353" stroke-miterlimit="22.926" stroke-linejoin="round"/><path fill-rule="evenodd" clip-rule="evenodd" d="M3.058 12.92l-1.138-.55a.25.25 0 10-.218.451l1.138.55a.25.25 0 10.218-.451z" fill="#FEFEFE"/><path clip-rule="evenodd" d="M4.106 12.238l-2.185-1.055a.25.25 0 10-.217.451l2.184 1.055a.25.25 0 10.218-.451v0z" stroke="#FEFEFE" stroke-width=".353" stroke-miterlimit="22.926" stroke-linejoin="round"/><path fill-rule="evenodd" clip-rule="evenodd" d="M4.106 12.238l-2.185-1.055a.25.25 0 10-.217.451l2.184 1.055a.25.25 0 10.218-.451z" fill="#FEFEFE"/></svg><svg fill="none" viewBox="0 0 18 17" id="feature_calendar" xmlns="http://www.w3.org/2000/svg"><path fill-rule="evenodd" clip-rule="evenodd" d="M16.068 9.684V1.642a.49.49 0 00-.49-.49h-2.481V.63a.49.49 0 10-.98 0v.522h-1.96V.63a.49.49 0 10-.98 0v.522H7.22V.63a.49.49 0 10-.98 0v.522h-1.96V.63a.49.49 0 00-.979 0v.522H.818a.49.49 0 00-.49.49V14.41c0 .271.22.49.49.49h8.158a4.408 4.408 0 003.663 1.96 4.413 4.413 0 004.409-4.409c0-1.047-.367-2.01-.98-2.767zM3.3 2.132v.49a.49.49 0 10.98 0v-.49h1.959v.49a.49.49 0 10.98 0v-.49h1.959v.49a.49.49 0 10.98 0v-.49h1.959v.49a.49.49 0 10.98 0v-.49h1.992v1.96H1.307v-1.96H3.3zM1.308 13.921V5.07h13.78v3.716a4.409 4.409 0 00-6.148 1.267.487.487 0 00-.22-.052h-.979a.49.49 0 100 .98h.742c-.11.312-.187.64-.225.98h-.517a.49.49 0 100 .98h.517c.038.339.114.667.225.979H1.308zm11.331 1.959a3.433 3.433 0 01-3.428-3.429 3.433 3.433 0 013.428-3.429 3.433 3.433 0 013.43 3.43 3.433 3.433 0 01-3.43 3.428z" fill="#FEFEFE"/><path fill-rule="evenodd" clip-rule="evenodd" d="M14.599 11.961h-1.47v-1.47a.49.49 0 10-.98 0v1.96c0 .27.22.49.49.49h1.96a.49.49 0 000-.98zM4.77 6.083h-.98a.49.49 0 100 .98h.98a.49.49 0 100-.98zM4.77 8.043h-.98a.49.49 0 100 .98h.98a.49.49 0 100-.98zM4.77 10.002h-.98a.49.49 0 100 .98h.98a.49.49 0 000-.98zM7.741 7.063h.98a.49.49 0 100-.98h-.98a.49.49 0 100 .98zM7.741 9.022h.98a.49.49 0 100-.98h-.98a.49.49 0 100 .98zM4.77 11.961h-.98a.49.49 0 100 .98h.98a.49.49 0 000-.98zM11.66 7.063h.98a.49.49 0 100-.98h-.98a.49.49 0 100 .98z" fill="#FEFEFE"/></svg><svg fill="none" viewBox="0 0 17 13" id="feature_size" xmlns="http://www.w3.org/2000/svg"><path clip-rule="evenodd" d="M16.598 10.147L14.643 3.89a.819.819 0 00-.785-.577h-.968V2.217h.608a.549.549 0 00.532-.416l.17-.682h1.158V.571H1.644v.548H2.8l.17.682c.062.244.28.415.533.416h.608v1.097h-.968a.819.819 0 00-.785.577L.404 10.147a1.92 1.92 0 001.832 2.493h12.53a1.92 1.92 0 001.832-2.493zM3.503 1.668l-.137-.549h10.27l-.138.549H3.503v0zm1.158.549h7.68v1.097h-7.68V2.217zm11.21 9.315a1.358 1.358 0 01-1.106.559H2.236a1.371 1.371 0 01-1.309-1.78l1.955-6.257a.274.274 0 01.262-.192h10.714c.12 0 .226.078.262.192l1.954 6.256c.133.416.057.871-.204 1.222v0z" stroke="#FEFEFE" stroke-width=".265" stroke-miterlimit="22.926" stroke-linejoin="round"/><path fill-rule="evenodd" clip-rule="evenodd" d="M16.598 10.147L14.643 3.89a.819.819 0 00-.785-.577h-.968V2.217h.608a.549.549 0 00.532-.416l.17-.682h1.158V.571H1.644v.548H2.8l.17.682c.062.244.28.415.533.416h.608v1.097h-.968a.819.819 0 00-.785.577L.404 10.147a1.92 1.92 0 001.832 2.493h12.53a1.92 1.92 0 001.832-2.493zM3.503 1.668l-.137-.549h10.27l-.138.549H3.503zm1.158.549h7.68v1.097h-7.68V2.217zm11.21 9.315a1.358 1.358 0 01-1.106.559H2.236a1.371 1.371 0 01-1.309-1.78l1.955-6.257a.274.274 0 01.262-.192h10.714c.12 0 .226.078.262.192l1.954 6.256c.133.416.057.871-.204 1.222z" fill="#FEFEFE"/><path clip-rule="evenodd" d="M8.501 4.685a3.292 3.292 0 100 6.583 3.292 3.292 0 000-6.583v0zm0 6.035a2.74 2.74 0 01-2.222-1.143l.223-.128-.275-.476-.223.13c-.123-.27-.2-.557-.23-.85h.258v-.55h-.26c.03-.295.108-.582.23-.85l.224.128.274-.475-.222-.128c.173-.24.383-.45.623-.623l.128.222.475-.274-.129-.223c.27-.123.557-.2.85-.23v.258h.55v-.26c.293.03.58.107.85.23l-.13.224.476.274.128-.222c.24.173.45.383.624.623l-.223.128.275.475.223-.129c.123.269.2.556.23.85h-.258v.549h.26c-.03.294-.108.581-.23.85l-.224-.129-.274.475.222.129a2.74 2.74 0 01-2.223 1.145v0z" stroke="#FEFEFE" stroke-width=".265" stroke-miterlimit="22.926" stroke-linejoin="round"/><path fill-rule="evenodd" clip-rule="evenodd" d="M8.501 4.685a3.292 3.292 0 100 6.583 3.292 3.292 0 000-6.583zm0 6.035A2.74 2.74 0 016.28 9.577l.223-.128-.275-.476-.223.13c-.123-.27-.2-.557-.23-.85h.258v-.55h-.26c.03-.295.108-.582.23-.85l.224.128.274-.475-.222-.128c.173-.24.383-.45.623-.623l.128.222.475-.274-.129-.223c.27-.123.557-.2.85-.23v.258h.55v-.26c.293.03.58.107.85.23l-.13.224.476.274.128-.222c.24.173.45.383.624.623l-.223.128.275.475.223-.129c.123.269.2.556.23.85h-.258v.549h.26c-.03.294-.108.581-.23.85l-.224-.129-.274.475.222.129a2.74 2.74 0 01-2.223 1.145z" fill="#FEFEFE"/><path clip-rule="evenodd" d="M9.679 6.411l-.826.825a.807.807 0 00-.352-.082.823.823 0 10.823.823.81.81 0 00-.082-.353l.825-.825-.388-.388v0zM8.5 8.251a.274.274 0 110-.549.274.274 0 010 .549z" stroke="#FEFEFE" stroke-width=".265" stroke-miterlimit="22.926" stroke-linejoin="round"/><path fill-rule="evenodd" clip-rule="evenodd" d="M9.679 6.411l-.826.825a.807.807 0 00-.352-.082.823.823 0 10.823.823.81.81 0 00-.082-.353l.825-.825-.388-.388zM8.5 8.251a.274.274 0 110-.549.274.274 0 010 .549z" fill="#FEFEFE"/></svg><svg fill="none" viewBox="0 0 210 51" id="footer_logo" xmlns="http://www.w3.org/2000/svg"><path fill-rule="evenodd" clip-rule="evenodd" d="M72.211 0s.1 0 0 0c.1 5.4.1 10.7.1 16.1-.9-.1-1.6-.7-2.2-1.1-2.7-2-4.5-6.4-2.7-10.6.7-1.5 1.8-2.8 3.1-3.6.5-.4 1.2-.5 1.7-.8zm3.2 0c2.7.5 4.7 3.3 5.4 5.9 1.3 4.6-1.9 9.6-5.4 10.2V0zM.011 8.8h4.4v19.3c0 7.4 1 11.2 7.4 12.2 1.5.3 3-.2 4-.6 3-1.2 5.8-4.9 4.8-9.5-.2-.8-.4-1.5-.7-2.2-1.3-2.9-5.1-5.3-9.5-4.1-1.1.3-2 .7-2.9 1.1-.4.2-.8.5-1.2.7v-4.6c.5-.2 1-.5 1.5-.7.8-.3 1.7-.6 2.6-.8 1-.2 2.4-.3 3.5-.1 1 .2 1.8.2 2.6.4 3 .9 5.3 2.6 6.8 5.1.6 1 1.1 2.2 1.5 3.5.7 2.4.5 5.8-.3 7.8-1.7 4.3-4.5 7.2-9.4 8.2-1.6.3-3.7.3-5.2-.1-5.4-1.2-8.5-4.6-9.6-10-.4-1.7-.3-3.6-.3-5.6v-7.2V8.8zm116 35.3c-4.5 0-8.2.4-10.8-1.6-2.2-1.8-2.3-5.2-2.3-9.2V20.9v-7h4.4v6h8.6v4.2h-6.3c-.5 0-2.1-.1-2.3.1v10.7c0 1.8-.2 3.6.9 4.3 1.3.9 4 .6 6 .6h1.8v4.3zm-67.1 0v-7.8c0-6.1-.3-10.1-4.7-11.9-1.2-.5-3-1-4.7-.7-1 .2-1.9.4-2.8.8-1.8.9-3.1 2.4-3.9 4.4-.6 1.6-.6 4.4-.1 6.1 1 3.3 5.1 6.4 9.8 5.2 1.9-.5 3.1-1.5 4.4-2.5 0 .8.2 4.3-.1 4.7-.5.3-.9.6-1.4.9-.8.5-1.9.8-2.9 1.1-1 .2-2.5.4-3.7.2-.8-.1-1.5-.1-2.3-.3-3-.8-5.4-2.5-6.9-4.9-.7-1.1-1.2-2.4-1.6-3.8-1.7-6.8 2.3-12.7 6.5-14.7 1-.5 2.1-.9 3.3-1.1 1.7-.4 4-.3 5.6 0 5.6 1.3 8.3 4.7 9.5 10.4.3 1.3.2 2.9.2 4.5v9.5c-1.2-.1-2.7-.1-4.2-.1zm20.4-24.7v4.2c-8.2-.1-7.4 7-7.4 14.9V44h-4.4V19.8h4.2v2.8c.2-.1 1.3-1.5 1.7-1.8 1.4-1.1 3.2-1.4 5.9-1.4zm74.2 24.7h-4.5v-7.8-4.4c-.6-3.7-1.5-6.1-4.5-7.4-1.1-.5-2.9-1-4.6-.7-1.1.2-2 .4-2.8.7-3.1 1.4-5.7 5.6-4.2 10.3 1.1 3.5 5.2 6.7 10.2 5.4 1.8-.5 2.9-1.5 4.2-2.4v4.6c-1.4.8-2.4 1.6-4.3 2-2.2.5-5.2.2-7-.5-4.5-1.6-6.9-4.6-7.8-9.9-.2-1.1-.2-2.5 0-3.5.2-.9.3-1.8.6-2.6 1-2.7 2.7-5 5-6.4 1.3-.8 2.8-1.4 4.6-1.8 2.7-.6 5.9 0 7.8.8 3.5 1.5 5.6 4.1 6.8 8 .6 2.2.6 4.8.6 7.6-.1 2.6-.1 5.3-.1 8zm-67.4 0h-4.4V19.9h4.4v24.2zm11.9-24.2h10.5v4.2h-10.7c-1.7 0-3.8.3-3.5 2.1.4 2.4 3.6 2.7 5.8 3.3 3.8 1.2 7.9 2.1 9.2 5.8.2.5.4 1.4.3 2-.2 1.5-.2 2.5-.8 3.4-2.2 3.6-6.3 3.2-12 3.2h-7v-4.2h11.5c1.8 0 4.1-.2 3.8-2.2-.3-2-1.9-2.3-3.7-2.9-2.9-.9-6.1-1.6-8.4-3-1.3-.8-2.4-2-2.9-3.7-.9-2.9.6-5.6 2.2-6.7.9-.6 2-1 3.3-1.3.8.1 1.6 0 2.4 0zM184.911 50.8c3.4 0 6.8-.8 10.2-2.5.4-.2 2.5-1.5 3.9-3 .9-1 1.6-2 1.6-2 5.8-.8 9.6-7.6 9.3-13-.2-4-2-7.9-4.9-10.1-1.8.9-3.8 1.5-5.8 1.9 1.9.7 4.7 2.3 5.7 5.9.2.8.4 1.7.4 2.7-.1 5.6-5.2 9.5-10.7 8.5-2.7-.5-4.9-2.3-6.1-4.7-.8-1.6-1.2-3.4-.7-5.7.1-.2.1-.5.2-.8.1-.2.2-.5.3-.8 1.6-3.7 4.9-5.7 8.9-6.9 6.4-1.5 11.3-3.2 11.3-11.8-2 4.7-11.1 4.2-14.5 5.7-2.9-1-6.2-1.1-9.1-1.1-3 0-6.2.1-9.1 1.1-3.4-1.4-12.4-1-14.5-5.7 0 8.5 4.9 10.3 11.3 11.8 4 1.2 7.3 3.2 8.9 6.9.1.3.2.5.3.8.1.3.1.5.2.8.5 2.4.1 4.1-.7 5.7-1.2 2.5-3.3 4.2-6.1 4.7-5.5 1-10.6-2.9-10.7-8.5 0-1 .1-1.9.4-2.7 1-3.5 3.8-5.1 5.7-5.9-2.1-.4-4-1.1-5.8-1.9-2.8 2.2-4.7 6.1-4.9 10.1-.3 5.4 3.5 12.2 9.3 13 0 0 .6 1 1.6 2 1.4 1.4 3.5 2.8 3.9 3 3.4 1.7 6.8 2.5 10.2 2.5zm-7.7-20.4c0 2.1-1.7 3.9-3.9 3.9-2.1 0-3.9-1.7-3.9-3.9 0-2.1 1.7-3.9 3.9-3.9s3.9 1.8 3.9 3.9zm15.4 0c0 2.1 1.7 3.9 3.9 3.9 2.1 0 3.9-1.7 3.9-3.9 0-2.1-1.7-3.9-3.9-3.9s-3.9 1.8-3.9 3.9zm-7.7 7.6c1.2 1.8 2.7 3.2 4.5 4.3-1.8 1.1-3.1 3-4.5 4.6-1.4-1.6-2.7-3.4-4.5-4.6 1.8-1.1 3.3-2.5 4.5-4.3z" fill="#fff"/></svg><svg fill="none" viewBox="0 0 170 42" id="header_logo" xmlns="http://www.w3.org/2000/svg"><path fill-rule="evenodd" clip-rule="evenodd" d="M58.237.75s.08 0 0 0c.08 4.288.08 8.497.08 12.785-.724-.08-1.287-.556-1.77-.873-2.174-1.589-3.623-5.083-2.174-8.418.563-1.191 1.449-2.223 2.496-2.859.402-.317.966-.397 1.368-.635zm2.576 0c2.174.397 3.784 2.62 4.348 4.685 1.047 3.653-1.53 7.624-4.348 8.1V.75zM.11 7.738h3.543v15.327c0 5.876.805 8.894 5.957 9.688 1.208.238 2.415-.159 3.22-.477 2.416-.953 4.67-3.89 3.865-7.544-.161-.635-.322-1.19-.564-1.747-1.046-2.303-4.106-4.209-7.648-3.256-.886.239-1.61.556-2.335.874-.322.159-.644.397-.966.556v-3.653c.403-.159.805-.397 1.208-.556a16.067 16.067 0 012.093-.635c.805-.16 1.932-.239 2.818-.08.805.16 1.449.16 2.093.318 2.415.715 4.267 2.065 5.475 4.05.483.794.885 1.747 1.207 2.78.564 1.905.403 4.605-.241 6.194-1.369 3.414-3.623 5.717-7.568 6.511-1.288.239-2.979.239-4.187-.08-4.347-.952-6.843-3.652-7.728-7.94C.03 26.718.11 25.208.11 23.62v-5.718V7.738zM93.5 35.771c-3.623 0-6.602.317-8.695-1.271-1.771-1.43-1.852-4.13-1.852-7.306v-9.847-5.559h3.543v4.765h6.923v3.335h-5.072c-.402 0-1.69-.08-1.851.08v8.497c0 1.43-.161 2.858.724 3.414 1.047.715 3.22.477 4.83.477h1.45v3.415zm-54.021 0v-6.195c0-4.844-.242-8.02-3.784-9.45-.966-.397-2.415-.794-3.784-.555-.805.158-1.53.317-2.254.635-1.45.715-2.496 1.906-3.14 3.494-.483 1.27-.483 3.494-.08 4.844.804 2.62 4.105 5.082 7.89 4.13 1.529-.398 2.495-1.192 3.542-1.986 0 .636.16 3.415-.08 3.733-.403.238-.726.476-1.128.714-.644.397-1.53.636-2.335.874-.805.159-2.013.318-2.979.159-.644-.08-1.207-.08-1.851-.239-2.415-.635-4.348-1.985-5.555-3.89-.564-.874-.966-1.907-1.288-3.018-1.37-5.4 1.851-10.086 5.233-11.674a9.474 9.474 0 012.656-.873c1.369-.318 3.22-.239 4.509 0 4.508 1.032 6.682 3.732 7.648 8.258.242 1.033.161 2.303.161 3.574v7.544c-.966-.08-2.174-.08-3.381-.08zm16.424-19.615v3.335c-6.602-.08-5.958 5.559-5.958 11.832v4.368h-3.542V16.473h3.38v2.224c.162-.08 1.047-1.191 1.37-1.43 1.127-.873 2.576-1.111 4.75-1.111zM115.64 35.77h-3.623v-6.195-3.494c-.483-2.938-1.208-4.844-3.623-5.876-.886-.397-2.335-.794-3.703-.556-.886.159-1.611.318-2.255.556-2.495 1.112-4.589 4.447-3.381 8.18.886 2.779 4.186 5.32 8.212 4.287 1.449-.397 2.335-1.19 3.381-1.905v3.653c-1.127.635-1.932 1.27-3.462 1.588-1.771.397-4.186.159-5.635-.397-3.623-1.27-5.555-3.653-6.28-7.862-.16-.873-.16-1.985 0-2.78.161-.714.242-1.429.483-2.064.805-2.144 2.174-3.97 4.026-5.082 1.046-.636 2.254-1.112 3.703-1.43 2.174-.476 4.75 0 6.28.635 2.817 1.192 4.508 3.256 5.474 6.353.483 1.747.483 3.812.483 6.036-.08 2.064-.08 4.209-.08 6.353zm-54.263 0h-3.542V16.553h3.542V35.77zm9.58-19.218h8.454v3.335h-8.614c-1.37 0-3.06.238-2.818 1.668.322 1.906 2.898 2.144 4.67 2.62 3.059.953 6.36 1.668 7.406 4.606.161.397.322 1.112.242 1.589-.161 1.19-.161 1.985-.644 2.7-1.772 2.858-5.073 2.54-9.662 2.54h-5.635v-3.334h9.258c1.45 0 3.301-.16 3.06-1.748-.242-1.588-1.53-1.826-2.98-2.302-2.334-.715-4.91-1.271-6.762-2.383-1.046-.635-1.932-1.588-2.335-2.938-.724-2.303.484-4.447 1.772-5.32.724-.477 1.61-.795 2.656-1.033.644.08 1.288 0 1.933 0zM148.97 41.091c2.738 0 5.475-.635 8.212-1.985.322-.159 2.013-1.191 3.14-2.383a18.736 18.736 0 001.288-1.588c4.67-.635 7.729-6.035 7.487-10.323-.161-3.177-1.61-6.274-3.944-8.02-1.45.714-3.06 1.19-4.67 1.508 1.53.556 3.784 1.826 4.589 4.685.161.636.322 1.35.322 2.144-.08 4.447-4.186 7.544-8.614 6.75-2.174-.397-3.945-1.826-4.911-3.732-.644-1.27-.966-2.7-.564-4.526.081-.16.081-.397.161-.636.081-.159.161-.397.242-.635 1.288-2.938 3.944-4.527 7.165-5.48 5.152-1.19 9.097-2.54 9.097-9.37-1.61 3.732-8.936 3.335-11.673 4.527-2.335-.795-4.992-.874-7.327-.874-2.415 0-4.991.08-7.326.873-2.737-1.111-9.983-.794-11.674-4.526 0 6.75 3.945 8.18 9.098 9.37 3.22.953 5.877 2.542 7.165 5.48.081.238.161.397.242.635.08.239.08.397.161.636.402 1.905.08 3.256-.564 4.526-.966 1.985-2.657 3.335-4.911 3.732-4.428.794-8.534-2.303-8.614-6.75 0-.794.08-1.508.322-2.144.805-2.78 3.059-4.05 4.589-4.685-1.691-.318-3.221-.873-4.67-1.509-2.254 1.747-3.784 4.844-3.945 8.02-.241 4.289 2.818 9.689 7.487 10.324 0 0 .484.794 1.289 1.589 1.127 1.111 2.817 2.223 3.139 2.382 2.738 1.35 5.475 1.985 8.212 1.985zm-6.199-16.2c0 1.668-1.368 3.097-3.14 3.097-1.69 0-3.14-1.35-3.14-3.097 0-1.667 1.369-3.097 3.14-3.097 1.772 0 3.14 1.43 3.14 3.097zm12.398 0c0 1.668 1.369 3.097 3.14 3.097 1.691 0 3.14-1.35 3.14-3.097 0-1.667-1.369-3.097-3.14-3.097-1.771 0-3.14 1.43-3.14 3.097zm-6.199 6.036c.966 1.429 2.174 2.54 3.623 3.414-1.449.874-2.496 2.383-3.623 3.653-1.127-1.27-2.173-2.7-3.623-3.653 1.45-.873 2.657-1.985 3.623-3.415z" fill="#0D0E0F"/></svg><svg viewBox="0 0 612 612" id="header_menu" xmlns="http://www.w3.org/2000/svg"><path d="M581.4 520.199H30.6c-16.891 0-30.6 13.709-30.6 30.6C0 567.691 13.709 581.4 30.6 581.4h550.8c16.891 0 30.6-13.709 30.6-30.602 0-16.89-13.709-30.599-30.6-30.599zM30.6 91.799h550.8c16.891 0 30.6-13.708 30.6-30.6 0-16.892-13.709-30.6-30.6-30.6H30.6C13.709 30.6 0 44.308 0 61.2c0 16.891 13.709 30.599 30.6 30.599zm550.8 183.6H30.6C13.709 275.399 0 289.108 0 306s13.709 30.6 30.6 30.6h550.8c16.891 0 30.6-13.709 30.6-30.6s-13.709-30.601-30.6-30.601z"/></svg><svg fill="none" viewBox="0 0 286 190" id="hover_bg" xmlns="http://www.w3.org/2000/svg"><rect width="25" height="1" rx=".5" fill="#fff" fill-opacity=".7"/><rect width="1" height="25" rx=".5" fill="#fff" fill-opacity=".7"/><rect y="190" width="25" height="1" rx=".5" transform="rotate(-90 0 190)" fill="#fff" fill-opacity=".7"/><rect y="190" width="1" height="25" rx=".5" transform="rotate(-90 0 190)" fill="#fff" fill-opacity=".7"/><rect x="286" y="190" width="25" height="1" rx=".5" transform="rotate(-180 286 190)" fill="#fff" fill-opacity=".7"/><rect x="286" y="190" width="1" height="25" rx=".5" transform="rotate(-180 286 190)" fill="#fff" fill-opacity=".7"/><rect x="286" width="25" height="1" rx=".5" transform="rotate(90 286 0)" fill="#fff" fill-opacity=".7"/><rect x="286" width="1" height="25" rx=".5" transform="rotate(90 286 0)" fill="#fff" fill-opacity=".7"/></svg><svg fill="none" viewBox="0 0 42 41" id="iconUp" xmlns="http://www.w3.org/2000/svg"><g clip-path="url(#oclip0)" fill="#FEFEFE"><path d="M9.12 23.054c.176.18.38.27.612.272a.845.845 0 00.617-.262l10.593-10.408L31.351 23.25c.176.18.38.27.612.272a.845.845 0 00.617-.261l1.348-1.325c.179-.176.27-.38.271-.612a.846.846 0 00-.26-.617L21.595 8.147a.842.842 0 00-.612-.273.845.845 0 00-.617.261L7.807 20.477a.844.844 0 00-.273.612.845.845 0 00.262.617l1.324 1.348z"/><path d="M21.506 18.407a.843.843 0 00-.612-.273.845.845 0 00-.617.262L7.717 30.737a.844.844 0 00-.274.613.845.845 0 00.262.616l1.324 1.348c.177.18.38.27.612.272a.847.847 0 00.617-.26l10.594-10.41L31.26 33.51c.177.18.381.27.612.273a.844.844 0 00.617-.262l1.348-1.324c.18-.177.27-.38.272-.612a.847.847 0 00-.261-.617L21.506 18.407z"/></g><defs><clipPath id="oclip0"><path fill="#fff" transform="rotate(.505 -827.198 871.71)" d="M0 0h26.667v26.667H0z"/></clipPath></defs></svg><svg viewBox="0 0 27.442 27.442" id="phoneIcon" xmlns="http://www.w3.org/2000/svg"><path d="M19.494 0H7.948a1.997 1.997 0 00-1.997 1.999v23.446c0 1.102.892 1.997 1.997 1.997h11.546a1.998 1.998 0 001.997-1.997V1.999A1.999 1.999 0 0019.494 0zm-8.622 1.214h5.7c.144 0 .261.215.261.481s-.117.482-.261.482h-5.7c-.145 0-.26-.216-.26-.482s.115-.481.26-.481zm2.85 24.255a1.275 1.275 0 110-2.55 1.275 1.275 0 010 2.55zm6.273-4.369H7.448V3.373h12.547V21.1z" fill="#e33535"/></svg><svg viewBox="0 0 512 512" id="ruble" xmlns="http://www.w3.org/2000/svg"><path d="M288.134 319.2c88.291 0 159.6-71.458 159.6-159.6 0-88.004-71.596-159.6-159.6-159.6H127.467c-8.284 0-15 6.716-15 15v209.933h-33.2c-8.284 0-15 6.716-15 15V304.2c0 8.284 6.716 15 15 15h33.2v34.267h-33.2c-8.284 0-15 6.716-15 15v64.267c0 8.284 6.716 15 15 15h33.2V497c0 8.284 6.716 15 15 15h64.267c8.284 0 15-6.716 15-15v-49.267H304.2c8.284 0 15-6.716 15-15v-64.267c0-8.284-6.716-15-15-15h-97.467V319.2zM206.733 94.267h81.4c36.024 0 65.333 29.309 65.333 65.333s-29.309 65.333-65.333 65.333h-81.4z" fill="#0D0E0F"/><g fill="#0D0E0F"><path d="M319.2 432.733v-64.267c0-8.284-6.716-15-15-15h-97.467v94.267H304.2c8.284 0 15-6.715 15-15zM288.134 0h-81.4v94.267h81.4c36.024 0 65.333 29.309 65.333 65.333s-29.309 65.333-65.333 65.333h-81.4V319.2h81.4c88.291 0 159.6-71.458 159.6-159.6C447.733 71.596 376.138 0 288.134 0z"/></g></svg><svg viewBox="0 0 512 512" id="ruble-2" xmlns="http://www.w3.org/2000/svg"><path d="M288.134 319.2c88.291 0 159.6-71.458 159.6-159.6 0-88.004-71.596-159.6-159.6-159.6H127.467c-8.284 0-15 6.716-15 15v209.933h-33.2c-8.284 0-15 6.716-15 15V304.2c0 8.284 6.716 15 15 15h33.2v34.267h-33.2c-8.284 0-15 6.716-15 15v64.267c0 8.284 6.716 15 15 15h33.2V497c0 8.284 6.716 15 15 15h64.267c8.284 0 15-6.716 15-15v-49.267H304.2c8.284 0 15-6.716 15-15v-64.267c0-8.284-6.716-15-15-15h-97.467V319.2zM206.733 94.267h81.4c36.024 0 65.333 29.309 65.333 65.333s-29.309 65.333-65.333 65.333h-81.4z"/></svg><svg viewBox="0 0 512 512" id="ruble_old" xmlns="http://www.w3.org/2000/svg"><path d="M288.134 319.2c88.291 0 159.6-71.458 159.6-159.6 0-88.004-71.596-159.6-159.6-159.6H127.467c-8.284 0-15 6.716-15 15v209.933h-33.2c-8.284 0-15 6.716-15 15V304.2c0 8.284 6.716 15 15 15h33.2v34.267h-33.2c-8.284 0-15 6.716-15 15v64.267c0 8.284 6.716 15 15 15h33.2V497c0 8.284 6.716 15 15 15h64.267c8.284 0 15-6.716 15-15v-49.267H304.2c8.284 0 15-6.716 15-15v-64.267c0-8.284-6.716-15-15-15h-97.467V319.2zM206.733 94.267h81.4c36.024 0 65.333 29.309 65.333 65.333s-29.309 65.333-65.333 65.333h-81.4z" fill="#8f8f8f"/><g fill="#8f8f8f"><path d="M319.2 432.733v-64.267c0-8.284-6.716-15-15-15h-97.467v94.267H304.2c8.284 0 15-6.715 15-15zM288.134 0h-81.4v94.267h81.4c36.024 0 65.333 29.309 65.333 65.333s-29.309 65.333-65.333 65.333h-81.4V319.2h81.4c88.291 0 159.6-71.458 159.6-159.6C447.733 71.596 376.138 0 288.134 0z"/></g></svg><svg viewBox="0 0 512 512" id="ruble_red" xmlns="http://www.w3.org/2000/svg"><path d="M288.134 319.2c88.291 0 159.6-71.458 159.6-159.6 0-88.004-71.596-159.6-159.6-159.6H127.467c-8.284 0-15 6.716-15 15v209.933h-33.2c-8.284 0-15 6.716-15 15V304.2c0 8.284 6.716 15 15 15h33.2v34.267h-33.2c-8.284 0-15 6.716-15 15v64.267c0 8.284 6.716 15 15 15h33.2V497c0 8.284 6.716 15 15 15h64.267c8.284 0 15-6.716 15-15v-49.267H304.2c8.284 0 15-6.716 15-15v-64.267c0-8.284-6.716-15-15-15h-97.467V319.2zM206.733 94.267h81.4c36.024 0 65.333 29.309 65.333 65.333s-29.309 65.333-65.333 65.333h-81.4z" fill="#E33535"/><g fill="#E33535"><path d="M319.2 432.733v-64.267c0-8.284-6.716-15-15-15h-97.467v94.267H304.2c8.284 0 15-6.715 15-15zM288.134 0h-81.4v94.267h81.4c36.024 0 65.333 29.309 65.333 65.333s-29.309 65.333-65.333 65.333h-81.4V319.2h81.4c88.291 0 159.6-71.458 159.6-159.6C447.733 71.596 376.138 0 288.134 0z"/></g></svg><svg viewBox="-4 0 511 512" id="search_icon" xmlns="http://www.w3.org/2000/svg"><path d="M86.75 207.004c-9.523 0-17.25-7.723-17.25-17.25C69.5 123.168 123.668 69 190.254 69c9.527 0 17.25 7.727 17.25 17.25 0 9.527-7.723 17.25-17.25 17.25-47.559 0-86.254 38.695-86.254 86.254 0 9.527-7.723 17.25-17.25 17.25zm0 0"/><path d="M491.527 438.664L350.31 291.34c9.054-14.219 16.343-29.535 21.3-45.617 5.575-18.059 8.399-36.891 8.399-55.97C380.008 85.126 294.883 0 190.254 0S.5 85.125.5 189.754s85.125 189.754 189.754 189.754c12.426 0 24.863-1.211 36.984-3.606 9.34-1.843 15.422-10.914 13.578-20.265-1.843-9.332-10.91-15.5-20.265-13.578a157.09 157.09 0 01-30.297 2.949C104.652 345.008 35 275.355 35 189.754 35 104.152 104.652 34.5 190.254 34.5c85.601 0 155.254 69.652 155.254 155.254 0 15.625-2.309 31.031-6.867 45.805-9.551 30.968-29.168 58.824-55.246 78.418-.247.183-.356.46-.586.656-.254.21-.579.277-.82.504-.66.62-.973 1.43-1.516 2.12-.7.888-1.426 1.716-1.934 2.7-.52 1.016-.785 2.066-1.09 3.148-.3 1.055-.629 2.055-.722 3.145-.098 1.11.05 2.172.168 3.281.109 1.094.183 2.153.507 3.223.332 1.098.926 2.074 1.485 3.101.402.747.558 1.57 1.082 2.27.191.254.484.371.687.61.203.245.262.55.485.785l149.136 159.87c8.403 8.407 19.45 12.61 30.5 12.61 11.043 0 22.086-4.203 30.493-12.61 16.82-16.812 16.82-44.175.257-60.726zM466.871 475c-3.367 3.352-8.824 3.367-11.781.426L318.71 329.219A190.107 190.107 0 00329 318.965l137.871 143.828c3.363 3.371 3.363 8.836 0 12.207zm0 0"/></svg><svg viewBox="0 0 511 511.999" id="shop_icon" xmlns="http://www.w3.org/2000/svg"><path d="M512.496 172v80c0 11.047-8.953 20-20 20h-13.152l-8.426 74.988c-1.148 10.219-9.805 17.766-19.852 17.77-.746 0-1.496-.043-2.257-.13-10.977-1.23-18.875-11.132-17.641-22.105l10.422-92.753c1.137-10.118 9.691-17.77 19.875-17.77H472.5v-40h-432v40h341c11.047 0 20 8.957 20 20 0 11.047-8.953 20-20 20H74.273l19.75 164.762C96.43 456.852 113.503 472 133.738 472h247.125c20.383 0 37.473-15.277 39.75-35.535 1.23-10.977 11.13-18.871 22.106-17.64 10.976 1.234 18.875 11.132 17.644 22.109-4.554 40.511-38.73 71.066-79.5 71.066H133.738c-40.468 0-74.617-30.3-79.433-70.48L33.988 272H20.5c-11.047 0-20-8.953-20-20v-80c0-11.047 8.953-20 20-20h70.938L197.12 8.16c6.54-8.898 19.055-10.816 27.957-4.273 8.902 6.539 10.817 19.054 4.277 27.957L141.075 152h231.59L284.378 31.844c-6.54-8.903-4.625-21.418 4.277-27.957 8.903-6.543 21.418-4.63 27.961 4.273L422.297 152h70.2c11.046 0 20 8.957 20 20zM236.5 332v80c0 11.047 8.953 20 20 20 11.043 0 20-8.953 20-20v-80c0-11.047-8.957-20-20-20-11.047 0-20 8.953-20 20zm80 0v80c0 11.047 8.953 20 20 20 11.043 0 20-8.953 20-20v-80c0-11.047-8.957-20-20-20-11.047 0-20 8.953-20 20zm-160 0v80c0 11.047 8.953 20 20 20 11.043 0 20-8.953 20-20v-80c0-11.047-8.957-20-20-20-11.047 0-20 8.953-20 20zm0 0"/></svg><svg viewBox="0 0 512 512" id="user_icon" xmlns="http://www.w3.org/2000/svg"><path d="M437.019 310.826c-28.355-28.355-62.197-49.227-99.125-61.652 34.055-25.17 56.183-65.596 56.183-111.097C394.078 61.941 332.137 0 256 0S117.922 61.941 117.922 138.077c0 45.502 22.128 85.928 56.183 111.097-36.928 12.424-70.768 33.296-99.125 61.652C26.629 359.178 0 423.466 0 491.846 0 502.977 9.023 512 20.154 512h471.691c11.131 0 20.154-9.023 20.154-20.154.001-68.38-26.628-132.668-74.98-181.02zM158.232 138.077c0-53.91 43.858-97.768 97.769-97.768 53.911 0 97.769 43.858 97.769 97.768 0 53.91-43.858 97.768-97.769 97.768-53.911.001-97.769-43.858-97.769-97.768zM41.243 471.691C51.437 362.172 143.863 276.154 256 276.154s204.563 86.017 214.757 195.537H41.243z"/></svg></svg>