<?xml version="1.0" encoding="utf-8"?><svg viewBox="0 0 512 512" xmlns="http://www.w3.org/2000/svg" xmlns:xlink="http://www.w3.org/1999/xlink"><style>:root>svg{display:none}:root>svg:target{display:block}</style><svg fill="none" viewBox="0 0 190 54" id="header_logo" xmlns="http://www.w3.org/2000/svg"><path fill="#fff" d="M0 0h190v54H0z"/><path fill-rule="evenodd" clip-rule="evenodd" d="M69.237 6.75s.08 0 0 0c.08 4.288.08 8.497.08 12.785-.724-.08-1.287-.556-1.77-.873-2.174-1.588-3.623-5.083-2.174-8.418.563-1.191 1.449-2.223 2.496-2.859.402-.317.966-.397 1.368-.635zm2.577 0c2.173.397 3.783 2.62 4.347 4.685 1.047 3.653-1.53 7.624-4.347 8.1V6.75zM11.11 13.738h3.543v15.327c0 5.876.805 8.894 5.957 9.688 1.208.238 2.415-.159 3.22-.477 2.416-.953 4.67-3.89 3.865-7.544-.161-.635-.322-1.19-.564-1.747-1.046-2.303-4.106-4.209-7.648-3.256-.886.239-1.61.556-2.335.874-.322.159-.644.397-.966.556v-3.653c.403-.159.805-.397 1.208-.556a16.067 16.067 0 012.093-.635c.805-.16 1.932-.239 2.818-.08.805.16 1.449.16 2.093.318 2.415.715 4.267 2.065 5.475 4.05.483.794.885 1.747 1.207 2.78.564 1.905.403 4.605-.241 6.194-1.369 3.414-3.623 5.717-7.568 6.511-1.288.239-2.979.239-4.186-.08-4.348-.952-6.844-3.652-7.73-7.94-.321-1.35-.24-2.86-.24-4.447v-5.718-10.165zm93.39 28.033c-3.623 0-6.602.317-8.695-1.271-1.771-1.43-1.852-4.13-1.852-7.306v-9.847-5.559h3.543v4.765h6.923v3.335h-5.072c-.402 0-1.69-.08-1.851.08v8.497c0 1.43-.161 2.858.724 3.414 1.047.715 3.221.477 4.831.477h1.449v3.415zm-54.021 0v-6.194c0-4.845-.242-8.021-3.784-9.45-.966-.398-2.415-.795-3.784-.556-.805.158-1.53.317-2.254.635-1.45.715-2.496 1.906-3.14 3.494-.483 1.27-.483 3.494-.08 4.844.805 2.62 4.105 5.083 7.89 4.13 1.529-.398 2.495-1.192 3.542-1.986 0 .636.16 3.415-.08 3.733-.403.238-.726.476-1.128.714-.644.397-1.53.636-2.335.874-.805.159-2.013.318-2.979.159-.644-.08-1.207-.08-1.851-.239-2.416-.635-4.348-1.985-5.555-3.89-.564-.874-.966-1.907-1.288-3.018-1.37-5.4 1.851-10.086 5.233-11.674a9.474 9.474 0 012.656-.873c1.369-.318 3.22-.239 4.509 0 4.508 1.032 6.682 3.732 7.648 8.258.242 1.033.161 2.303.161 3.574v7.544c-.966-.08-2.174-.08-3.381-.08zm16.424-19.615v3.335c-6.602-.08-5.958 5.559-5.958 11.833v4.367h-3.542V22.473h3.38v2.224c.162-.08 1.047-1.191 1.37-1.43 1.127-.873 2.576-1.111 4.75-1.111zM126.64 41.77h-3.623v-6.194-3.495c-.483-2.938-1.208-4.844-3.623-5.876-.886-.397-2.335-.794-3.703-.556-.886.159-1.611.318-2.255.556-2.495 1.112-4.589 4.447-3.381 8.18.886 2.779 4.186 5.32 8.212 4.287 1.449-.397 2.335-1.19 3.381-1.905v3.653c-1.127.635-1.932 1.27-3.462 1.588-1.771.397-4.186.159-5.635-.397-3.623-1.27-5.555-3.653-6.28-7.862-.161-.873-.161-1.985 0-2.78.161-.714.242-1.429.483-2.064.805-2.144 2.174-3.97 4.026-5.082 1.046-.636 2.254-1.112 3.703-1.43 2.174-.476 4.75 0 6.28.635 2.817 1.192 4.508 3.256 5.474 6.353.483 1.747.483 3.812.483 6.036-.08 2.064-.08 4.209-.08 6.353zm-54.263 0h-3.542V22.553h3.542V41.77zm9.58-19.218h8.454v3.335h-8.614c-1.37 0-3.06.238-2.818 1.668.322 1.906 2.898 2.144 4.67 2.62 3.059.953 6.36 1.668 7.406 4.606.161.397.322 1.112.242 1.589-.161 1.19-.161 1.985-.644 2.7-1.772 2.858-5.073 2.54-9.662 2.54h-5.635v-3.334h9.258c1.45 0 3.301-.16 3.06-1.748-.242-1.588-1.53-1.826-2.98-2.303-2.334-.714-4.91-1.27-6.762-2.382-1.046-.635-1.932-1.588-2.335-2.938-.724-2.303.484-4.447 1.772-5.32.724-.477 1.61-.795 2.656-1.033.644.08 1.288 0 1.933 0zM159.97 47.091c2.738 0 5.475-.635 8.212-1.985.322-.159 2.013-1.191 3.14-2.383a18.736 18.736 0 001.288-1.588c4.67-.635 7.729-6.035 7.487-10.323-.161-3.177-1.61-6.274-3.944-8.02-1.45.714-3.06 1.19-4.67 1.508 1.53.556 3.784 1.826 4.589 4.685.161.636.322 1.35.322 2.144-.08 4.448-4.186 7.544-8.614 6.75-2.174-.397-3.945-1.826-4.911-3.732-.644-1.27-.966-2.7-.564-4.526.081-.16.081-.397.161-.636.081-.159.161-.397.242-.635 1.288-2.938 3.944-4.527 7.165-5.48 5.152-1.19 9.097-2.54 9.097-9.37-1.61 3.732-8.936 3.335-11.673 4.526-2.335-.794-4.992-.873-7.327-.873-2.415 0-4.991.08-7.326.873-2.737-1.111-9.983-.794-11.674-4.526 0 6.75 3.945 8.18 9.098 9.37 3.22.953 5.877 2.542 7.165 5.48.081.238.161.397.242.635.08.239.08.397.161.636.402 1.905.08 3.256-.564 4.526-.966 1.985-2.657 3.335-4.911 3.732-4.428.794-8.534-2.302-8.614-6.75 0-.794.08-1.508.322-2.144.805-2.78 3.059-4.05 4.589-4.685-1.691-.318-3.221-.873-4.67-1.509-2.254 1.747-3.784 4.844-3.945 8.02-.241 4.289 2.818 9.689 7.487 10.324 0 0 .484.794 1.289 1.589 1.127 1.111 2.817 2.223 3.139 2.382 2.738 1.35 5.475 1.985 8.212 1.985zm-6.199-16.2c0 1.668-1.368 3.097-3.14 3.097-1.69 0-3.14-1.35-3.14-3.097 0-1.667 1.369-3.097 3.14-3.097 1.772 0 3.14 1.43 3.14 3.097zm12.398 0c0 1.668 1.369 3.097 3.14 3.097 1.691 0 3.14-1.35 3.14-3.097 0-1.667-1.369-3.097-3.14-3.097-1.771 0-3.14 1.43-3.14 3.097zm-6.199 6.035c.966 1.43 2.174 2.542 3.623 3.415-1.449.874-2.496 2.383-3.623 3.653-1.127-1.27-2.173-2.7-3.623-3.653 1.45-.873 2.657-1.985 3.623-3.415z" fill="#0D0E0F"/></svg><svg viewBox="-4 0 511 512" id="search_icon" xmlns="http://www.w3.org/2000/svg"><path d="M86.75 207.004c-9.523 0-17.25-7.723-17.25-17.25C69.5 123.168 123.668 69 190.254 69c9.527 0 17.25 7.727 17.25 17.25 0 9.527-7.723 17.25-17.25 17.25-47.559 0-86.254 38.695-86.254 86.254 0 9.527-7.723 17.25-17.25 17.25zm0 0"/><path d="M491.527 438.664L350.31 291.34c9.054-14.219 16.343-29.535 21.3-45.617 5.575-18.059 8.399-36.891 8.399-55.97C380.008 85.126 294.883 0 190.254 0S.5 85.125.5 189.754s85.125 189.754 189.754 189.754c12.426 0 24.863-1.211 36.984-3.606 9.34-1.843 15.422-10.914 13.578-20.265-1.843-9.332-10.91-15.5-20.265-13.578a157.09 157.09 0 01-30.297 2.949C104.652 345.008 35 275.355 35 189.754 35 104.152 104.652 34.5 190.254 34.5c85.601 0 155.254 69.652 155.254 155.254 0 15.625-2.309 31.031-6.867 45.805-9.551 30.968-29.168 58.824-55.246 78.418-.247.183-.356.46-.586.656-.254.21-.579.277-.82.504-.66.62-.973 1.43-1.516 2.12-.7.888-1.426 1.716-1.934 2.7-.52 1.016-.785 2.066-1.09 3.148-.3 1.055-.629 2.055-.722 3.145-.098 1.11.05 2.172.168 3.281.109 1.094.183 2.153.507 3.223.332 1.098.926 2.074 1.485 3.101.402.747.558 1.57 1.082 2.27.191.254.484.371.687.61.203.245.262.55.485.785l149.136 159.87c8.403 8.407 19.45 12.61 30.5 12.61 11.043 0 22.086-4.203 30.493-12.61 16.82-16.812 16.82-44.175.257-60.726zM466.871 475c-3.367 3.352-8.824 3.367-11.781.426L318.71 329.219A190.107 190.107 0 00329 318.965l137.871 143.828c3.363 3.371 3.363 8.836 0 12.207zm0 0"/></svg><svg viewBox="0 0 511 511.999" id="shop_icon" xmlns="http://www.w3.org/2000/svg"><path d="M512.496 172v80c0 11.047-8.953 20-20 20h-13.152l-8.426 74.988c-1.148 10.219-9.805 17.766-19.852 17.77-.746 0-1.496-.043-2.257-.13-10.977-1.23-18.875-11.132-17.641-22.105l10.422-92.753c1.137-10.118 9.691-17.77 19.875-17.77H472.5v-40h-432v40h341c11.047 0 20 8.957 20 20 0 11.047-8.953 20-20 20H74.273l19.75 164.762C96.43 456.852 113.503 472 133.738 472h247.125c20.383 0 37.473-15.277 39.75-35.535 1.23-10.977 11.13-18.871 22.106-17.64 10.976 1.234 18.875 11.132 17.644 22.109-4.554 40.511-38.73 71.066-79.5 71.066H133.738c-40.468 0-74.617-30.3-79.433-70.48L33.988 272H20.5c-11.047 0-20-8.953-20-20v-80c0-11.047 8.953-20 20-20h70.938L197.12 8.16c6.54-8.898 19.055-10.816 27.957-4.273 8.902 6.539 10.817 19.054 4.277 27.957L141.075 152h231.59L284.378 31.844c-6.54-8.903-4.625-21.418 4.277-27.957 8.903-6.543 21.418-4.63 27.961 4.273L422.297 152h70.2c11.046 0 20 8.957 20 20zM236.5 332v80c0 11.047 8.953 20 20 20 11.043 0 20-8.953 20-20v-80c0-11.047-8.957-20-20-20-11.047 0-20 8.953-20 20zm80 0v80c0 11.047 8.953 20 20 20 11.043 0 20-8.953 20-20v-80c0-11.047-8.957-20-20-20-11.047 0-20 8.953-20 20zm-160 0v80c0 11.047 8.953 20 20 20 11.043 0 20-8.953 20-20v-80c0-11.047-8.957-20-20-20-11.047 0-20 8.953-20 20zm0 0"/></svg><svg viewBox="0 0 512 512" id="user_icon" xmlns="http://www.w3.org/2000/svg"><path d="M437.019 310.826c-28.355-28.355-62.197-49.227-99.125-61.652 34.055-25.17 56.183-65.596 56.183-111.097C394.078 61.941 332.137 0 256 0S117.922 61.941 117.922 138.077c0 45.502 22.128 85.928 56.183 111.097-36.928 12.424-70.768 33.296-99.125 61.652C26.629 359.178 0 423.466 0 491.846 0 502.977 9.023 512 20.154 512h471.691c11.131 0 20.154-9.023 20.154-20.154.001-68.38-26.628-132.668-74.98-181.02zM158.232 138.077c0-53.91 43.858-97.768 97.769-97.768 53.911 0 97.769 43.858 97.769 97.768 0 53.91-43.858 97.768-97.769 97.768-53.911.001-97.769-43.858-97.769-97.768zM41.243 471.691C51.437 362.172 143.863 276.154 256 276.154s204.563 86.017 214.757 195.537H41.243z"/></svg></svg>