<svg width="190" height="54" viewBox="0 0 190 54" fill="none" xmlns="http://www.w3.org/2000/svg">
<rect width="190" height="54" fill="white"/>
<path fill-rule="evenodd" clip-rule="evenodd" d="M69.2373 6.75C69.2373 6.75 69.3178 6.75 69.2373 6.75C69.3178 11.0382 69.3178 15.2471 69.3178 19.5353C68.5932 19.4559 68.0296 18.9794 67.5466 18.6618C65.3728 17.0735 63.9237 13.5794 65.3728 10.2441C65.9364 9.05294 66.822 8.02059 67.8686 7.38529C68.2712 7.06765 68.8347 6.98824 69.2373 6.75ZM71.8135 6.75C73.9873 7.14706 75.5974 9.37059 76.161 11.4353C77.2076 15.0882 74.6313 19.0588 71.8135 19.5353C71.8135 15.2471 71.8135 10.9588 71.8135 6.75ZM11.1101 13.7382C12.3178 13.7382 13.4449 13.7382 14.6525 13.7382C14.6525 17.7882 14.6525 21.8382 14.6525 25.8882C14.6525 26.9206 14.6525 28.0324 14.6525 29.0647C14.6525 34.9412 15.4576 37.9588 20.6101 38.7529C21.8178 38.9912 23.0254 38.5941 23.8305 38.2765C26.2457 37.3235 28.5 34.3853 27.6949 30.7323C27.5339 30.0971 27.3729 29.5412 27.1313 28.9853C26.0847 26.6824 23.0254 24.7765 19.483 25.7294C18.5974 25.9676 17.8729 26.2853 17.1483 26.6029C16.8262 26.7618 16.5042 27 16.1822 27.1588C16.1822 25.9676 16.1822 24.6971 16.1822 23.5059C16.5847 23.3471 16.9873 23.1088 17.3898 22.95C18.0339 22.7118 18.7584 22.4735 19.483 22.3147C20.2881 22.1559 21.4152 22.0765 22.3008 22.2353C23.1059 22.3941 23.75 22.3941 24.394 22.5529C26.8093 23.2676 28.661 24.6176 29.8686 26.6029C30.3517 27.3971 30.7542 28.35 31.0762 29.3824C31.6398 31.2882 31.4788 33.9882 30.8347 35.5765C29.4661 38.9912 27.2118 41.2941 23.2669 42.0882C21.9788 42.3265 20.2881 42.3265 19.0805 42.0088C14.733 41.0559 12.2373 38.3559 11.3517 34.0676C11.0296 32.7176 11.1101 31.2088 11.1101 29.6206C11.1101 27.7147 11.1101 25.8088 11.1101 23.9029C11.1101 20.4882 11.1101 17.0735 11.1101 13.7382ZM104.5 41.7706C100.877 41.7706 97.8983 42.0882 95.805 40.5C94.0339 39.0706 93.9534 36.3706 93.9534 33.1941C93.9534 29.9382 93.9534 26.6029 93.9534 23.3471C93.9534 21.5206 93.9534 19.6147 93.9534 17.7882C95.161 17.7882 96.2881 17.7882 97.4957 17.7882C97.4957 19.3765 97.4957 20.9647 97.4957 22.4735C97.4957 22.4735 97.4957 22.4735 97.4957 22.5529C99.8305 22.5529 102.165 22.5529 104.419 22.5529C104.419 23.6647 104.419 24.7765 104.419 25.8882C102.729 25.8882 101.038 25.8882 99.3474 25.8882C98.9449 25.8882 97.6567 25.8088 97.4957 25.9676C97.4957 28.8265 97.4957 31.6853 97.4957 34.4647C97.4957 35.8941 97.3347 37.3235 98.2203 37.8794C99.2669 38.5941 101.441 38.3559 103.051 38.3559C103.534 38.3559 104.017 38.3559 104.5 38.3559C104.5 39.5471 104.5 40.6588 104.5 41.7706ZM50.4788 41.7706C50.4788 39.7059 50.4788 37.6412 50.4788 35.5765C50.4788 30.7324 50.2373 27.5559 46.6949 26.1265C45.7288 25.7294 44.2796 25.3323 42.911 25.5706C42.1059 25.7294 41.3813 25.8882 40.6567 26.2059C39.2076 26.9206 38.161 28.1118 37.5169 29.7C37.0339 30.9706 37.0339 33.1941 37.4364 34.5441C38.2415 37.1647 41.5423 39.6265 45.3262 38.6735C46.8559 38.2765 47.822 37.4823 48.8686 36.6882C48.8686 37.3235 49.0296 40.1029 48.7881 40.4206C48.3856 40.6588 48.0635 40.8971 47.661 41.1353C47.0169 41.5324 46.1313 41.7706 45.3262 42.0088C44.5212 42.1676 43.3135 42.3265 42.3474 42.1676C41.7034 42.0882 41.1398 42.0882 40.4957 41.9294C38.0805 41.2941 36.1483 39.9441 34.9406 38.0382C34.3771 37.1647 33.9746 36.1324 33.6525 35.0206C32.2839 29.6206 35.5042 24.9353 38.8856 23.3471C39.6907 22.95 40.5762 22.6324 41.5423 22.4735C42.911 22.1559 44.7627 22.2353 46.0508 22.4735C50.5593 23.5059 52.733 26.2059 53.6991 30.7323C53.9406 31.7647 53.8601 33.0353 53.8601 34.3059C53.8601 35.8941 53.8601 37.4823 53.8601 39.0706C53.8601 40.0235 53.8601 40.8971 53.8601 41.85C52.894 41.7706 51.6864 41.7706 50.4788 41.7706ZM66.9025 22.1559C66.9025 23.2676 66.9025 24.3794 66.9025 25.4912C60.3008 25.4118 60.9449 31.05 60.9449 37.3235C60.9449 38.7529 60.9449 40.2618 60.9449 41.6912C59.7373 41.6912 58.6101 41.6912 57.4025 41.6912C57.4025 35.2588 57.4025 28.9059 57.4025 22.4735C58.5296 22.4735 59.6567 22.4735 60.7839 22.4735C60.7839 23.1882 60.7839 23.9029 60.7839 24.6971C60.9449 24.6176 61.8305 23.5059 62.1525 23.2676C63.2796 22.3941 64.7288 22.1559 66.9025 22.1559ZM126.64 41.7706C125.432 41.7706 124.225 41.7706 123.017 41.7706C123.017 39.7059 123.017 37.6412 123.017 35.5765C123.017 34.3853 123.017 33.2735 123.017 32.0824C122.534 29.1441 121.809 27.2382 119.394 26.2059C118.508 25.8088 117.059 25.4118 115.691 25.65C114.805 25.8088 114.08 25.9676 113.436 26.2059C110.941 27.3176 108.847 30.6529 110.055 34.3853C110.941 37.1647 114.241 39.7059 118.267 38.6735C119.716 38.2765 120.602 37.4824 121.648 36.7676C121.648 37.9588 121.648 39.2294 121.648 40.4206C120.521 41.0559 119.716 41.6912 118.186 42.0088C116.415 42.4059 114 42.1676 112.551 41.6118C108.928 40.3412 106.996 37.9588 106.271 33.75C106.11 32.8765 106.11 31.7647 106.271 30.9706C106.432 30.2559 106.513 29.5412 106.754 28.9059C107.559 26.7618 108.928 24.9353 110.78 23.8235C111.826 23.1882 113.034 22.7118 114.483 22.3941C116.657 21.9176 119.233 22.3941 120.763 23.0294C123.58 24.2206 125.271 26.2853 126.237 29.3824C126.72 31.1294 126.72 33.1941 126.72 35.4176C126.64 37.4824 126.64 39.6265 126.64 41.7706ZM72.3771 41.7706C71.1695 41.7706 70.0423 41.7706 68.8347 41.7706C68.8347 35.3382 68.8347 28.9853 68.8347 22.5529C70.0423 22.5529 71.1695 22.5529 72.3771 22.5529C72.3771 28.9059 72.3771 35.3382 72.3771 41.7706ZM81.9576 22.5529C84.7754 22.5529 87.5932 22.5529 90.411 22.5529C90.411 23.6647 90.411 24.7765 90.411 25.8882C87.5932 25.8882 84.6949 25.8882 81.7966 25.8882C80.4279 25.8882 78.7373 26.1265 78.9788 27.5559C79.3008 29.4618 81.8771 29.7 83.6483 30.1765C86.7076 31.1294 90.0084 31.8441 91.0551 34.7824C91.2161 35.1794 91.3771 35.8941 91.2966 36.3706C91.1356 37.5618 91.1356 38.3559 90.6525 39.0706C88.8813 41.9294 85.5805 41.6118 80.9915 41.6118C79.1398 41.6118 77.2076 41.6118 75.3559 41.6118C75.3559 40.5 75.3559 39.3882 75.3559 38.2765C78.4152 38.2765 81.5551 38.2765 84.6144 38.2765C86.0635 38.2765 87.9152 38.1176 87.6737 36.5294C87.4322 34.9412 86.144 34.7029 84.6949 34.2265C82.3601 33.5118 79.7839 32.9559 77.9322 31.8441C76.8856 31.2088 76 30.2559 75.5974 28.9059C74.8728 26.6029 76.0805 24.4588 77.3686 23.5853C78.0932 23.1088 78.9788 22.7912 80.0254 22.5529C80.6695 22.6324 81.3135 22.5529 81.9576 22.5529Z" fill="#0D0E0F"/>
<path fill-rule="evenodd" clip-rule="evenodd" d="M159.97 47.0912C162.708 47.0912 165.445 46.4559 168.182 45.1059C168.504 44.9471 170.195 43.9147 171.322 42.7235C172.047 41.9294 172.61 41.1353 172.61 41.1353C177.28 40.5 180.339 35.1 180.097 30.8118C179.936 27.6353 178.487 24.5382 176.153 22.7912C174.703 23.5059 173.093 23.9824 171.483 24.3C173.013 24.8559 175.267 26.1265 176.072 28.9853C176.233 29.6206 176.394 30.3353 176.394 31.1294C176.314 35.5765 172.208 38.6735 167.78 37.8794C165.606 37.4823 163.835 36.0529 162.869 34.1471C162.225 32.8765 161.903 31.4471 162.305 29.6206C162.386 29.4618 162.386 29.2235 162.466 28.9853C162.547 28.8265 162.627 28.5882 162.708 28.35C163.996 25.4118 166.652 23.8235 169.873 22.8706C175.025 21.6794 178.97 20.3294 178.97 13.5C177.36 17.2324 170.034 16.8353 167.297 18.0265C164.962 17.2324 162.305 17.1529 159.97 17.1529C157.555 17.1529 154.979 17.2324 152.644 18.0265C149.907 16.9147 142.661 17.2324 140.97 13.5C140.97 20.25 144.915 21.6794 150.068 22.8706C153.288 23.8235 155.945 25.4118 157.233 28.35C157.314 28.5882 157.394 28.7471 157.475 28.9853C157.555 29.2235 157.555 29.3824 157.636 29.6206C158.038 31.5265 157.716 32.8765 157.072 34.1471C156.106 36.1324 154.415 37.4823 152.161 37.8794C147.733 38.6735 143.627 35.5765 143.547 31.1294C143.547 30.3353 143.627 29.6206 143.869 28.9853C144.674 26.2059 146.928 24.9353 148.458 24.3C146.767 23.9824 145.237 23.4265 143.788 22.7912C141.534 24.5382 140.004 27.6353 139.843 30.8118C139.602 35.1 142.661 40.5 147.33 41.1353C147.33 41.1353 147.814 41.9294 148.619 42.7235C149.746 43.8353 151.436 44.9471 151.758 45.1059C154.496 46.4559 157.233 47.0912 159.97 47.0912ZM153.771 30.8912C153.771 32.5588 152.403 33.9882 150.631 33.9882C148.941 33.9882 147.491 32.6382 147.491 30.8912C147.491 29.2235 148.86 27.7941 150.631 27.7941C152.403 27.7941 153.771 29.2235 153.771 30.8912ZM166.169 30.8912C166.169 32.5588 167.538 33.9882 169.309 33.9882C171 33.9882 172.449 32.6382 172.449 30.8912C172.449 29.2235 171.08 27.7941 169.309 27.7941C167.538 27.7941 166.169 29.2235 166.169 30.8912ZM159.97 36.9265C160.936 38.3559 162.144 39.4676 163.593 40.3412C162.144 41.2147 161.097 42.7235 159.97 43.9941C158.843 42.7235 157.797 41.2941 156.347 40.3412C157.797 39.4676 159.004 38.3559 159.97 36.9265Z" fill="#0D0E0F"/>
</svg>
