<svg width="8" height="8" viewBox="0 0 8 8" fill="none" xmlns="http://www.w3.org/2000/svg">
<g clip-path="url(#clip0)">
<path d="M3.80399 4.00023C3.81132 3.90593 3.78266 3.80961 3.71034 3.73763L0.737027 0.769307C0.605729 0.638348 0.39311 0.638348 0.261813 0.769307C0.130503 0.900279 0.130503 1.11257 0.261813 1.24387L3.02285 4.00023L0.261813 6.7566C0.130503 6.88756 0.130503 7.09985 0.261813 7.23082C0.393123 7.36178 0.605742 7.36178 0.737027 7.23082L3.71036 4.2625C3.78266 4.19052 3.811 4.09455 3.80399 4.00023ZM7.74243 3.73763L4.09694 0.0984634C3.96563 -0.0324956 3.75301 -0.0324956 3.62171 0.0984634C3.4904 0.229435 3.4904 0.442054 3.62171 0.572687L7.05492 4.00023L3.6217 7.42744C3.49039 7.55842 3.49039 7.7707 3.6217 7.90201C3.75301 8.03298 3.96563 8.03298 4.09693 7.90201L7.74208 4.26285C7.81439 4.19087 7.84272 4.09455 7.83538 4.00024C7.84307 3.90593 7.81441 3.80961 7.74243 3.73763Z" fill="#333333"/>
</g>
<defs>
<clipPath id="clip0">
<rect width="8" height="8" fill="white"/>
</clipPath>
</defs>
</svg>
