<svg width="30" height="30" viewBox="0 0 30 30" fill="none" xmlns="http://www.w3.org/2000/svg">
<g clip-path="url(#clip0)">
<path d="M6.71488 29.3933C6.3862 29.3933 6.0598 29.2908 5.78125 29.0894C5.26236 28.7133 5.01997 28.0669 5.16119 27.4432L7.09117 18.9416L0.5459 13.2016C0.0647781 12.7816 -0.119019 12.1164 0.0785114 11.5078C0.276041 10.9004 0.81347 10.4703 1.44978 10.4115L10.11 9.62523L13.5339 1.61256C13.7864 1.02386 14.3613 0.643677 15.0002 0.643677C15.639 0.643677 16.2139 1.02386 16.4664 1.61119L19.8903 9.62523L28.5492 10.4115C29.1868 10.4689 29.7243 10.9004 29.9218 11.5078C30.1193 12.1153 29.9367 12.7816 29.4556 13.2016L22.9103 18.9405L24.8403 27.4419C24.9817 28.0669 24.7391 28.7133 24.2204 29.0882C23.7029 29.4632 23.0128 29.492 22.4678 29.1645L15.0002 24.7018L7.53247 29.167C7.28 29.3169 6.9987 29.3933 6.71488 29.3933ZM15.0002 22.7794C15.284 22.7794 15.5651 22.8556 15.8177 23.0055L22.8654 27.2207L21.0439 19.1966C20.9139 18.6256 21.1078 18.0293 21.5491 17.6429L27.7293 12.2229L19.5527 11.4804C18.964 11.4266 18.4577 11.0565 18.2277 10.514L15.0002 2.95247L11.7687 10.5151C11.5412 11.0539 11.0349 11.4241 10.4476 11.4778L2.26988 12.2204L8.44985 17.6404C8.89252 18.0279 9.08616 18.623 8.955 19.1955L7.13489 27.2194L14.1826 23.0055C14.435 22.8556 14.7163 22.7794 15.0002 22.7794ZM10.0438 9.78019C10.0438 9.78019 10.0438 9.78156 10.0425 9.78271L10.0438 9.78019ZM19.954 9.77653L19.9553 9.77904C19.9553 9.77767 19.9553 9.77767 19.954 9.77653Z" fill="#0D0E0F"/>
</g>
<defs>
<clipPath id="clip0">
<rect width="30" height="30" fill="white"/>
</clipPath>
</defs>
</svg>
