<svg width="20" height="21" viewBox="0 0 20 21" fill="none" xmlns="http://www.w3.org/2000/svg">
<g clip-path="url(#clip0)">
<path d="M4.47667 20.589C4.25755 20.589 4.03995 20.5195 3.85425 20.3831C3.50832 20.1283 3.34673 19.6905 3.44088 19.2679L4.72753 13.5088L0.364015 9.62038C0.0432668 9.33586 -0.0792644 8.88528 0.0524223 8.47299C0.184109 8.06148 0.542395 7.77014 0.9666 7.73029L6.74006 7.19768L9.02268 1.76974C9.19099 1.37095 9.5743 1.1134 10.0002 1.1134C10.4261 1.1134 10.8094 1.37095 10.9777 1.76881L13.2603 7.19768L19.0329 7.73029C19.458 7.76921 19.8163 8.06148 19.948 8.47299C20.0796 8.8845 19.9579 9.33586 19.6371 9.62038L15.2736 13.508L16.5603 19.267C16.6546 19.6905 16.4928 20.1283 16.147 20.3823C15.802 20.6363 15.342 20.6558 14.9786 20.4339L10.0002 17.4109L5.02173 20.4356C4.85342 20.5372 4.66588 20.589 4.47667 20.589ZM10.0002 16.1086C10.1894 16.1086 10.3768 16.1602 10.5452 16.2618L15.2437 19.1172L14.0294 13.6815C13.9427 13.2947 14.0719 12.8908 14.3661 12.629L18.4863 8.95738L13.0352 8.45439C12.6428 8.41795 12.3052 8.16723 12.1519 7.79975L10.0002 2.67742L7.8459 7.80053C7.69422 8.16552 7.35669 8.41624 6.96514 8.45268L1.51334 8.95567L5.63331 12.6273C5.92843 12.8898 6.05752 13.293 5.97008 13.6808L4.75667 19.1163L9.45513 16.2618C9.62344 16.1602 9.81097 16.1086 10.0002 16.1086ZM6.69596 7.30265C6.69596 7.30265 6.69596 7.30358 6.69505 7.30436L6.69596 7.30265ZM13.3027 7.30017L13.3036 7.30188C13.3036 7.30095 13.3036 7.30095 13.3027 7.30017Z" fill="#0d0e0f"/>
</g>
<defs>
<clipPath id="clip0">
<rect width="20" height="20.3226" fill="white" transform="translate(0 0.677368)"/>
</clipPath>
</defs>
</svg>
