<svg width="20" height="20" viewBox="0 0 20 20" fill="none" xmlns="http://www.w3.org/2000/svg">
<g clip-path="url(#clip0)">
<path d="M19.9475 7.67123C19.8158 7.26626 19.4566 6.97954 19.0333 6.94124L13.2599 6.41709L10.9782 1.07521C10.8097 0.682743 10.4264 0.429443 9.99978 0.429443C9.57314 0.429443 9.18968 0.682743 9.02229 1.07521L6.7406 6.41709L0.966276 6.94124C0.54299 6.9803 0.184555 7.26702 0.0521065 7.67123C-0.0795791 8.07621 0.0420355 8.5204 0.36217 8.80117L4.72641 12.628L3.43961 18.2955C3.34547 18.7122 3.50721 19.1431 3.85298 19.3931C4.03884 19.5281 4.25719 19.5956 4.47631 19.5956C4.66461 19.5956 4.85306 19.5455 5.02137 19.4448L9.99978 16.4681L14.9773 19.4448C15.3424 19.663 15.8016 19.643 16.1466 19.3931C16.4924 19.1431 16.6541 18.7122 16.5599 18.2955L15.2732 12.628L19.6374 8.80117C19.9574 8.5204 20.0791 8.07712 19.9475 7.67123Z" fill="#E33535"/>
</g>
<defs>
<clipPath id="clip0">
<rect width="20" height="20" fill="white"/>
</clipPath>
</defs>
</svg>
