<svg width="20" height="20" viewBox="0 0 20 20" fill="none" xmlns="http://www.w3.org/2000/svg">
<path d="M4.47661 19.589C4.25749 19.589 4.03989 19.5195 3.85419 19.3831C3.50826 19.1283 3.34667 18.6905 3.44081 18.2679L4.72747 12.5088L0.363954 8.62038C0.0432058 8.33586 -0.0793254 7.88528 0.0523613 7.47299C0.184048 7.06148 0.542334 6.77014 0.966539 6.73029L6.74 6.19768L9.02262 0.769742C9.19093 0.370946 9.57424 0.113403 10.0001 0.113403C10.426 0.113403 10.8093 0.370946 10.9776 0.768812L13.2602 6.19768L19.0328 6.73029C19.4579 6.76921 19.8162 7.06148 19.9479 7.47299C20.0796 7.8845 19.9578 8.33586 19.6371 8.62038L15.2735 12.508L16.5602 18.267C16.6545 18.6905 16.4928 19.1283 16.147 19.3823C15.802 19.6363 15.3419 19.6558 14.9786 19.4339L10.0001 16.4109L5.02167 19.4356C4.85336 19.5372 4.66582 19.589 4.47661 19.589V19.589ZM10.0001 15.1086C10.1893 15.1086 10.3767 15.1602 10.5452 15.2618L15.2436 18.1172L14.0293 12.6815C13.9426 12.2947 14.0719 11.8908 14.3661 11.629L18.4862 7.95738L13.0352 7.45439C12.6427 7.41795 12.3052 7.16723 12.1518 6.79975L10.0001 1.67742L7.84583 6.80053C7.69416 7.16552 7.35662 7.41624 6.96507 7.45268L1.51328 7.95567L5.63325 11.6273C5.92837 11.8898 6.05746 12.293 5.97002 12.6808L4.75661 18.1163L9.45507 15.2618C9.62338 15.1602 9.81091 15.1086 10.0001 15.1086V15.1086ZM6.6959 6.30265C6.6959 6.30265 6.6959 6.30358 6.69499 6.30436L6.6959 6.30265ZM13.3027 6.30017L13.3036 6.30188C13.3036 6.30095 13.3036 6.30095 13.3027 6.30017Z" fill="#F5F5F5"/>
</svg>
