<svg width="18" height="17" viewBox="0 0 18 17" fill="none" xmlns="http://www.w3.org/2000/svg">
<path fill-rule="evenodd" clip-rule="evenodd" d="M16.0682 9.68364V1.6423C16.0682 1.3718 15.849 1.15247 15.5784 1.15247H13.0965V0.62997C13.0965 0.35947 12.8773 0.140137 12.6067 0.140137C12.3362 0.140137 12.1169 0.35947 12.1169 0.62997V1.15247H10.1576V0.62997C10.1576 0.35947 9.93837 0.140137 9.66778 0.140137C9.3972 0.140137 9.17795 0.35947 9.17795 0.62997V1.15247H7.21862V0.62997C7.21862 0.35947 6.99937 0.140137 6.72879 0.140137C6.45829 0.140137 6.23895 0.35947 6.23895 0.62997V1.15247H4.2797V0.62997C4.2797 0.35947 4.06037 0.140137 3.78987 0.140137C3.51929 0.140137 3.30004 0.35947 3.30004 0.62997V1.15247H0.818202C0.547702 1.15247 0.328369 1.37172 0.328369 1.6423V14.4105C0.328369 14.6811 0.547702 14.9003 0.818202 14.9003H8.97562C9.76753 16.0809 11.1142 16.8596 12.6394 16.8596C15.0702 16.8596 17.0479 14.882 17.0479 12.4512C17.0479 11.4039 16.6805 10.4408 16.0682 9.68364ZM3.30004 2.13214V2.62197C3.30004 2.89255 3.51929 3.1118 3.78987 3.1118C4.06045 3.1118 4.2797 2.89255 4.2797 2.62197V2.13214H6.23895V2.62197C6.23895 2.89255 6.45829 3.1118 6.72879 3.1118C6.99937 3.1118 7.21862 2.89255 7.21862 2.62197V2.13214H9.17795V2.62197C9.17795 2.89255 9.3972 3.1118 9.66778 3.1118C9.93837 3.1118 10.1576 2.89255 10.1576 2.62197V2.13214H12.117V2.62197C12.117 2.89255 12.3362 3.1118 12.6068 3.1118C12.8773 3.1118 13.0966 2.89255 13.0966 2.62197V2.13214H15.0885V4.09147H1.30804V2.13214H3.30004ZM1.30804 13.9206V5.07114H15.0885V8.78739C14.3876 8.31739 13.545 8.04272 12.6394 8.04272C11.0916 8.04272 9.7277 8.84472 8.94095 10.0547C8.8747 10.0213 8.80012 10.0021 8.72079 10.0021H7.74112C7.47053 10.0021 7.25128 10.2213 7.25128 10.4919C7.25128 10.7625 7.47053 10.9817 7.74112 10.9817H8.48312C8.37253 11.2937 8.29604 11.6218 8.25837 11.9614H7.74112C7.47053 11.9614 7.25128 12.1806 7.25128 12.4512C7.25128 12.7217 7.47053 12.9411 7.74112 12.9411H8.25837C8.29604 13.2806 8.37245 13.6086 8.48312 13.9206H1.30804ZM12.6394 15.88C10.7487 15.88 9.21062 14.3419 9.21062 12.4512C9.21062 10.5605 10.7487 9.02239 12.6394 9.02239C14.5301 9.02239 16.0682 10.5605 16.0682 12.4512C16.0682 14.3419 14.5301 15.88 12.6394 15.88Z" fill="#FEFEFE"/>
<path fill-rule="evenodd" clip-rule="evenodd" d="M14.5988 11.9614H13.1293V10.4919C13.1293 10.2213 12.9101 10.0021 12.6395 10.0021C12.369 10.0021 12.1497 10.2213 12.1497 10.4919V12.4512C12.1497 12.7217 12.369 12.9411 12.6395 12.9411H14.5988C14.8694 12.9411 15.0887 12.7217 15.0887 12.4512C15.0887 12.1807 14.8694 11.9614 14.5988 11.9614Z" fill="#FEFEFE"/>
<path fill-rule="evenodd" clip-rule="evenodd" d="M4.76955 6.08337H3.78988C3.5193 6.08337 3.30005 6.30271 3.30005 6.57321C3.30005 6.84379 3.5193 7.06304 3.78988 7.06304H4.76955C5.04005 7.06304 5.25938 6.84379 5.25938 6.57321C5.25938 6.30271 5.04005 6.08337 4.76955 6.08337Z" fill="#FEFEFE"/>
<path fill-rule="evenodd" clip-rule="evenodd" d="M4.76955 8.04272H3.78988C3.5193 8.04272 3.30005 8.26197 3.30005 8.53256C3.30005 8.80314 3.5193 9.02239 3.78988 9.02239H4.76955C5.04005 9.02239 5.25938 8.80314 5.25938 8.53256C5.25938 8.26197 5.04005 8.04272 4.76955 8.04272Z" fill="#FEFEFE"/>
<path fill-rule="evenodd" clip-rule="evenodd" d="M4.76955 10.0021H3.78988C3.5193 10.0021 3.30005 10.2213 3.30005 10.4919C3.30005 10.7625 3.5193 10.9817 3.78988 10.9817H4.76955C5.04005 10.9817 5.25938 10.7624 5.25938 10.4919C5.25938 10.2213 5.04005 10.0021 4.76955 10.0021Z" fill="#FEFEFE"/>
<path fill-rule="evenodd" clip-rule="evenodd" d="M7.74105 7.06304H8.72072C8.9913 7.06304 9.21055 6.84379 9.21055 6.57321C9.21055 6.30271 8.9913 6.08337 8.72072 6.08337H7.74105C7.47047 6.08337 7.25122 6.30271 7.25122 6.57321C7.25122 6.84379 7.47047 7.06304 7.74105 7.06304Z" fill="#FEFEFE"/>
<path fill-rule="evenodd" clip-rule="evenodd" d="M7.74105 9.02239H8.72072C8.9913 9.02239 9.21055 8.80314 9.21055 8.53256C9.21055 8.26197 8.9913 8.04272 8.72072 8.04272H7.74105C7.47047 8.04272 7.25122 8.26197 7.25122 8.53256C7.25122 8.80314 7.47047 9.02239 7.74105 9.02239Z" fill="#FEFEFE"/>
<path fill-rule="evenodd" clip-rule="evenodd" d="M4.76955 11.9614H3.78988C3.5193 11.9614 3.30005 12.1807 3.30005 12.4513C3.30005 12.7218 3.5193 12.9411 3.78988 12.9411H4.76955C5.04005 12.9411 5.25938 12.7218 5.25938 12.4513C5.25938 12.1807 5.04005 11.9614 4.76955 11.9614Z" fill="#FEFEFE"/>
<path fill-rule="evenodd" clip-rule="evenodd" d="M11.6598 7.06304H12.6393C12.9099 7.06304 13.1292 6.84379 13.1292 6.57321C13.1292 6.30271 12.9099 6.08337 12.6393 6.08337H11.6598C11.3892 6.08337 11.1699 6.30271 11.1699 6.57321C11.1699 6.84379 11.3892 7.06304 11.6598 7.06304Z" fill="#FEFEFE"/>
</svg>
