<svg width="17" height="19" viewBox="0 0 17 19" fill="none" xmlns="http://www.w3.org/2000/svg">
<path fill-rule="evenodd" clip-rule="evenodd" d="M16.3664 4.72715L8.60885 0.98215C8.54002 0.948984 8.45994 0.948984 8.39119 0.98215L0.633604 4.72715C0.547104 4.7689 0.492188 4.85648 0.492188 4.95257V14.0477C0.492188 14.1437 0.547104 14.2312 0.633604 14.273L8.39119 18.018C8.42552 18.0346 8.46277 18.0429 8.50002 18.0429C8.53719 18.0429 8.57444 18.0346 8.60885 18.018L16.3664 14.273C16.4529 14.2312 16.5079 14.1437 16.5079 14.0477V4.95257C16.5079 4.85648 16.4529 4.76898 16.3664 4.72715V4.72715ZM8.50002 1.48548L15.6819 4.95257L13.6 5.95757C13.5869 5.94757 13.5729 5.93832 13.5576 5.9309L6.42452 2.4874L8.50002 1.48548V1.48548ZM5.85927 2.7704L13.0307 6.23248L11.5619 6.94157L4.39352 3.4809L5.85927 2.7704ZM13.1985 6.70723V9.32832L11.8265 9.99065V7.36957L13.1985 6.70723ZM16.0073 13.8906L8.75027 17.3939V8.85465L10.4813 8.01898C10.6058 7.9589 10.6579 7.80932 10.5979 7.68482C10.5378 7.56032 10.3882 7.50807 10.2637 7.56823L8.50002 8.41965L7.80602 8.08465C7.68152 8.02448 7.53194 8.07673 7.47185 8.20123C7.41169 8.32565 7.46394 8.47532 7.58835 8.5354L8.24969 8.85465V17.3939L0.992771 13.8905V5.35132L6.51885 8.01907C6.55394 8.03607 6.59102 8.04407 6.62752 8.04407C6.72052 8.04407 6.80985 7.9919 6.85302 7.90257C6.9131 7.77807 6.86094 7.6284 6.73644 7.56832L1.3181 4.95257L3.80435 3.75232L11.3225 7.38173C11.3236 7.38332 11.3249 7.38465 11.326 7.38615V10.3895C11.326 10.4756 11.3703 10.5557 11.4433 10.6015C11.4838 10.6269 11.5299 10.6397 11.5764 10.6397C11.6134 10.6397 11.6506 10.6315 11.6851 10.6148L13.5576 9.7109C13.6441 9.66915 13.6991 9.58157 13.6991 9.48548V6.46565L16.0073 5.35132V13.8906V13.8906Z" stroke="#FEFEFE" stroke-width="0.3528" stroke-miterlimit="22.9256" stroke-linejoin="round"/>
<path fill-rule="evenodd" clip-rule="evenodd" d="M16.3664 4.72715L8.60885 0.98215C8.54002 0.948984 8.45994 0.948984 8.39119 0.98215L0.633604 4.72715C0.547104 4.7689 0.492188 4.85648 0.492188 4.95257V14.0477C0.492188 14.1437 0.547104 14.2312 0.633604 14.273L8.39119 18.018C8.42552 18.0346 8.46277 18.0429 8.50002 18.0429C8.53719 18.0429 8.57444 18.0346 8.60885 18.018L16.3664 14.273C16.4529 14.2312 16.5079 14.1437 16.5079 14.0477V4.95257C16.5079 4.85648 16.4529 4.76898 16.3664 4.72715ZM8.50002 1.48548L15.6819 4.95257L13.6 5.95757C13.5869 5.94757 13.5729 5.93832 13.5576 5.9309L6.42452 2.4874L8.50002 1.48548ZM5.85927 2.7704L13.0307 6.23248L11.5619 6.94157L4.39352 3.4809L5.85927 2.7704ZM13.1985 6.70723V9.32832L11.8265 9.99065V7.36957L13.1985 6.70723ZM16.0073 13.8906L8.75027 17.3939V8.85465L10.4813 8.01898C10.6058 7.9589 10.6579 7.80932 10.5979 7.68482C10.5378 7.56032 10.3882 7.50807 10.2637 7.56823L8.50002 8.41965L7.80602 8.08465C7.68152 8.02448 7.53194 8.07673 7.47185 8.20123C7.41169 8.32565 7.46394 8.47532 7.58835 8.5354L8.24969 8.85465V17.3939L0.992771 13.8905V5.35132L6.51885 8.01907C6.55394 8.03607 6.59102 8.04407 6.62752 8.04407C6.72052 8.04407 6.80985 7.9919 6.85302 7.90257C6.9131 7.77807 6.86094 7.6284 6.73644 7.56832L1.3181 4.95257L3.80435 3.75232L11.3225 7.38173C11.3236 7.38332 11.3249 7.38465 11.326 7.38615V10.3895C11.326 10.4756 11.3703 10.5557 11.4433 10.6015C11.4838 10.6269 11.5299 10.6397 11.5764 10.6397C11.6134 10.6397 11.6506 10.6315 11.6851 10.6148L13.5576 9.7109C13.6441 9.66915 13.6991 9.58157 13.6991 9.48548V6.46565L16.0073 5.35132V13.8906Z" fill="#FEFEFE"/>
<path fill-rule="evenodd" clip-rule="evenodd" d="M3.05816 12.9199L1.91974 12.3703C1.79516 12.3102 1.64558 12.3624 1.58549 12.4868C1.52541 12.6113 1.57758 12.761 1.70208 12.8211L2.84049 13.3707C2.87558 13.3876 2.91266 13.3956 2.94916 13.3956C3.04216 13.3956 3.13149 13.3435 3.17466 13.2541C3.23483 13.1296 3.18258 12.98 3.05816 12.9199V12.9199Z" stroke="#FEFEFE" stroke-width="0.3528" stroke-miterlimit="22.9256" stroke-linejoin="round"/>
<path fill-rule="evenodd" clip-rule="evenodd" d="M3.05816 12.9199L1.91974 12.3703C1.79516 12.3102 1.64558 12.3624 1.58549 12.4868C1.52541 12.6113 1.57758 12.761 1.70208 12.8211L2.84049 13.3707C2.87558 13.3876 2.91266 13.3956 2.94916 13.3956C3.04216 13.3956 3.13149 13.3435 3.17466 13.2541C3.23483 13.1296 3.18258 12.98 3.05816 12.9199Z" fill="#FEFEFE"/>
<path fill-rule="evenodd" clip-rule="evenodd" d="M4.10595 12.2379L1.92137 11.1833C1.79687 11.1232 1.64729 11.1754 1.5872 11.2999C1.52712 11.4244 1.57929 11.5739 1.70379 11.6341L3.88837 12.6887C3.92345 12.7056 3.96054 12.7137 3.99704 12.7137C4.09004 12.7137 4.17937 12.6615 4.22254 12.5722C4.28262 12.4476 4.23045 12.2979 4.10595 12.2379V12.2379Z" stroke="#FEFEFE" stroke-width="0.3528" stroke-miterlimit="22.9256" stroke-linejoin="round"/>
<path fill-rule="evenodd" clip-rule="evenodd" d="M4.10595 12.2379L1.92137 11.1833C1.79687 11.1232 1.64729 11.1754 1.5872 11.2999C1.52712 11.4244 1.57929 11.5739 1.70379 11.6341L3.88837 12.6887C3.92345 12.7056 3.96054 12.7137 3.99704 12.7137C4.09004 12.7137 4.17937 12.6615 4.22254 12.5722C4.28262 12.4476 4.23045 12.2979 4.10595 12.2379Z" fill="#FEFEFE"/>
</svg>
