<svg width="17" height="13" viewBox="0 0 17 13" fill="none" xmlns="http://www.w3.org/2000/svg">
<path fill-rule="evenodd" clip-rule="evenodd" d="M16.5981 10.1468L14.6431 3.89105C14.5368 3.54672 14.2179 3.31238 13.8576 3.31372H12.8897V2.21655H13.4983C13.7499 2.21638 13.9694 2.04513 14.0304 1.80097L14.2008 1.11938H15.3584V0.570801H1.6437V1.11938H2.80111L2.97145 1.80097C3.03253 2.04513 3.25195 2.21638 3.50361 2.21655H4.11228V3.31372H3.14428C2.78395 3.31238 2.46511 3.54672 2.35878 3.89105L0.403864 10.1468C0.221614 10.7298 0.327697 11.3648 0.689447 11.8568C1.05128 12.3489 1.62561 12.6396 2.23636 12.6397H14.7655C15.3763 12.6396 15.9507 12.3489 16.3124 11.8568C16.6742 11.3648 16.7803 10.7298 16.5981 10.1468ZM3.50336 1.66797L3.3662 1.11938H13.6354L13.4983 1.66797H3.50336V1.66797ZM4.66086 2.21655H12.3411V3.31372H4.66086V2.21655ZM15.8704 11.5318C15.6134 11.8851 15.2023 12.0932 14.7655 12.091H2.23636C1.80011 12.091 1.38986 11.8834 1.13153 11.5319C0.873197 11.1805 0.797363 10.727 0.927447 10.3106L2.88228 4.05422C2.91828 3.9398 3.02436 3.86213 3.14428 3.8623H13.8576C13.9775 3.86213 14.0836 3.9398 14.1196 4.05422L16.0744 10.31C16.2069 10.7265 16.131 11.181 15.8704 11.5318V11.5318Z" stroke="#FEFEFE" stroke-width="0.2646" stroke-miterlimit="22.9256" stroke-linejoin="round"/>
<path fill-rule="evenodd" clip-rule="evenodd" d="M16.5981 10.1468L14.6431 3.89105C14.5368 3.54672 14.2179 3.31238 13.8576 3.31372H12.8897V2.21655H13.4983C13.7499 2.21638 13.9694 2.04513 14.0304 1.80097L14.2008 1.11938H15.3584V0.570801H1.6437V1.11938H2.80111L2.97145 1.80097C3.03253 2.04513 3.25195 2.21638 3.50361 2.21655H4.11228V3.31372H3.14428C2.78395 3.31238 2.46511 3.54672 2.35878 3.89105L0.403864 10.1468C0.221614 10.7298 0.327697 11.3648 0.689447 11.8568C1.05128 12.3489 1.62561 12.6396 2.23636 12.6397H14.7655C15.3763 12.6396 15.9507 12.3489 16.3124 11.8568C16.6742 11.3648 16.7803 10.7298 16.5981 10.1468ZM3.50336 1.66797L3.3662 1.11938H13.6354L13.4983 1.66797H3.50336ZM4.66086 2.21655H12.3411V3.31372H4.66086V2.21655ZM15.8704 11.5318C15.6134 11.8851 15.2023 12.0932 14.7655 12.091H2.23636C1.80011 12.091 1.38986 11.8834 1.13153 11.5319C0.873197 11.1805 0.797363 10.727 0.927447 10.3106L2.88228 4.05422C2.91828 3.9398 3.02436 3.86213 3.14428 3.8623H13.8576C13.9775 3.86213 14.0836 3.9398 14.1196 4.05422L16.0744 10.3101C16.2069 10.7265 16.131 11.181 15.8704 11.5318Z" fill="#FEFEFE"/>
<path fill-rule="evenodd" clip-rule="evenodd" d="M8.50105 4.68518C6.68314 4.68518 5.20947 6.15885 5.20947 7.97676C5.20947 9.7946 6.68314 11.2683 8.50105 11.2683C10.3189 11.2683 11.7926 9.7946 11.7926 7.97676C11.7906 6.15968 10.318 4.6871 8.50105 4.68518V4.68518ZM8.50105 10.7197C7.61964 10.7183 6.79289 10.2931 6.27922 9.57693L6.50172 9.44851L6.22739 8.97343L6.00389 9.10243C5.88122 8.83335 5.80339 8.54618 5.77339 8.2521H6.03239V7.70243H5.77206C5.80206 7.40835 5.87981 7.12101 6.00239 6.8521L6.22589 6.98093L6.50022 6.50593L6.27789 6.3776C6.45081 6.13801 6.66122 5.92785 6.90081 5.75493L7.02914 5.97743L7.50414 5.7031L7.37531 5.4796C7.64422 5.35685 7.93156 5.2791 8.22556 5.2491V5.5081H8.77414V5.24776C9.06822 5.2776 9.35556 5.35543 9.62447 5.4781L9.49564 5.7016L9.97064 5.97593L10.099 5.7536C10.339 5.92651 10.5496 6.13676 10.7227 6.37651L10.5002 6.50476L10.7746 6.97985L10.9982 6.85101C11.1207 7.11993 11.1986 7.40726 11.2286 7.70118L10.9696 7.70126V8.24985H11.2299C11.1999 8.54393 11.1221 8.83118 10.9996 9.10018L10.7761 8.97135L10.5017 9.44635L10.7242 9.57468C10.2107 10.2922 9.38314 10.7183 8.50105 10.7197V10.7197Z" stroke="#FEFEFE" stroke-width="0.2646" stroke-miterlimit="22.9256" stroke-linejoin="round"/>
<path fill-rule="evenodd" clip-rule="evenodd" d="M8.50106 4.68518C6.68314 4.68518 5.20947 6.15885 5.20947 7.97676C5.20947 9.7946 6.68314 11.2683 8.50106 11.2683C10.3189 11.2683 11.7926 9.7946 11.7926 7.97676C11.7906 6.15968 10.318 4.6871 8.50106 4.68518ZM8.50106 10.7197C7.61964 10.7183 6.79289 10.2931 6.27922 9.57693L6.50172 9.44851L6.22739 8.97343L6.00389 9.10243C5.88122 8.83335 5.80339 8.54618 5.77339 8.2521H6.03239V7.70243H5.77206C5.80206 7.40835 5.87981 7.12101 6.00239 6.8521L6.22589 6.98093L6.50022 6.50593L6.27789 6.3776C6.45081 6.13801 6.66122 5.92785 6.90081 5.75493L7.02914 5.97743L7.50414 5.7031L7.37531 5.4796C7.64422 5.35685 7.93156 5.2791 8.22556 5.2491V5.5081H8.77414V5.24776C9.06822 5.2776 9.35556 5.35543 9.62447 5.4781L9.49564 5.7016L9.97064 5.97593L10.099 5.7536C10.339 5.92651 10.5496 6.13676 10.7227 6.37651L10.5002 6.50476L10.7746 6.97985L10.9982 6.85101C11.1207 7.11993 11.1986 7.40726 11.2286 7.70118L10.9696 7.70126V8.24985H11.2299C11.1999 8.54393 11.1221 8.83118 10.9996 9.10018L10.7761 8.97135L10.5017 9.44635L10.7242 9.57468C10.2107 10.2922 9.38314 10.7183 8.50106 10.7197Z" fill="#FEFEFE"/>
<path fill-rule="evenodd" clip-rule="evenodd" d="M9.67864 6.41125L8.85347 7.236C8.74381 7.18225 8.62331 7.15417 8.50114 7.15375C8.04656 7.15375 7.67822 7.52209 7.67822 7.97667C7.67822 8.43109 8.04656 8.7995 8.50114 8.7995C8.95556 8.7995 9.32397 8.43109 9.32397 7.97667C9.32347 7.85434 9.29531 7.73392 9.24164 7.62417L10.0668 6.79909L9.67864 6.41125V6.41125ZM8.50114 8.25092C8.34964 8.25092 8.22681 8.12809 8.22681 7.97667C8.22681 7.82517 8.34964 7.70234 8.50114 7.70234C8.65256 7.70234 8.77539 7.82517 8.77539 7.97667C8.77539 8.12809 8.65256 8.25092 8.50114 8.25092Z" stroke="#FEFEFE" stroke-width="0.2646" stroke-miterlimit="22.9256" stroke-linejoin="round"/>
<path fill-rule="evenodd" clip-rule="evenodd" d="M9.67864 6.41125L8.85347 7.236C8.74381 7.18225 8.62331 7.15417 8.50114 7.15375C8.04656 7.15375 7.67822 7.52209 7.67822 7.97667C7.67822 8.43109 8.04656 8.7995 8.50114 8.7995C8.95556 8.7995 9.32397 8.43109 9.32397 7.97667C9.32347 7.85434 9.29531 7.73392 9.24164 7.62417L10.0668 6.79909L9.67864 6.41125ZM8.50114 8.25092C8.34964 8.25092 8.22681 8.12809 8.22681 7.97667C8.22681 7.82517 8.34964 7.70234 8.50114 7.70234C8.65256 7.70234 8.77539 7.82517 8.77539 7.97667C8.77539 8.12809 8.65256 8.25092 8.50114 8.25092Z" fill="#FEFEFE"/>
</svg>
