<svg width="210" height="51" viewBox="0 0 210 51" fill="none" xmlns="http://www.w3.org/2000/svg">
<path fill-rule="evenodd" clip-rule="evenodd" d="M72.2111 0C72.2111 0 72.3111 0 72.2111 0C72.3111 5.4 72.3111 10.7 72.3111 16.1C71.4111 16 70.7111 15.4 70.1111 15C67.4111 13 65.6111 8.6 67.4111 4.4C68.1111 2.9 69.2111 1.6 70.5111 0.799999C71.0111 0.399999 71.7111 0.3 72.2111 0ZM75.4111 0C78.1111 0.5 80.1111 3.3 80.8111 5.9C82.1111 10.5 78.9111 15.5 75.4111 16.1C75.4111 10.7 75.4111 5.3 75.4111 0ZM0.0111113 8.8C1.51111 8.8 2.91111 8.8 4.41111 8.8C4.41111 13.9 4.41111 19 4.41111 24.1C4.41111 25.4 4.41111 26.8 4.41111 28.1C4.41111 35.5 5.41111 39.3 11.8111 40.3C13.3111 40.6 14.8111 40.1 15.8111 39.7C18.8111 38.5 21.6111 34.8 20.6111 30.2C20.4111 29.4 20.2111 28.7 19.9111 28C18.6111 25.1 14.8111 22.7 10.4111 23.9C9.31111 24.2 8.41111 24.6 7.51111 25C7.11111 25.2 6.71111 25.5 6.31111 25.7C6.31111 24.2 6.31111 22.6 6.31111 21.1C6.81111 20.9 7.31111 20.6 7.81111 20.4C8.61111 20.1 9.51111 19.8 10.4111 19.6C11.4111 19.4 12.8111 19.3 13.9111 19.5C14.9111 19.7 15.7111 19.7 16.5111 19.9C19.5111 20.8 21.8111 22.5 23.3111 25C23.9111 26 24.4111 27.2 24.8111 28.5C25.5111 30.9 25.3111 34.3 24.5111 36.3C22.8111 40.6 20.0111 43.5 15.1111 44.5C13.5111 44.8 11.4111 44.8 9.91111 44.4C4.51111 43.2 1.41111 39.8 0.311111 34.4C-0.0888894 32.7 0.0111113 30.8 0.0111113 28.8C0.0111113 26.4 0.0111113 24 0.0111113 21.6C0.0111113 17.3 0.0111113 13 0.0111113 8.8ZM116.011 44.1C111.511 44.1 107.811 44.5 105.211 42.5C103.011 40.7 102.911 37.3 102.911 33.3C102.911 29.2 102.911 25 102.911 20.9C102.911 18.6 102.911 16.2 102.911 13.9C104.411 13.9 105.811 13.9 107.311 13.9C107.311 15.9 107.311 17.9 107.311 19.8C107.311 19.8 107.311 19.8 107.311 19.9C110.211 19.9 113.111 19.9 115.911 19.9C115.911 21.3 115.911 22.7 115.911 24.1C113.811 24.1 111.711 24.1 109.611 24.1C109.111 24.1 107.511 24 107.311 24.2C107.311 27.8 107.311 31.4 107.311 34.9C107.311 36.7 107.111 38.5 108.211 39.2C109.511 40.1 112.211 39.8 114.211 39.8C114.811 39.8 115.411 39.8 116.011 39.8C116.011 41.3 116.011 42.7 116.011 44.1ZM48.9111 44.1C48.9111 41.5 48.9111 38.9 48.9111 36.3C48.9111 30.2 48.6111 26.2 44.2111 24.4C43.0111 23.9 41.2111 23.4 39.5111 23.7C38.5111 23.9 37.6111 24.1 36.7111 24.5C34.9111 25.4 33.6111 26.9 32.8111 28.9C32.2111 30.5 32.2111 33.3 32.7111 35C33.7111 38.3 37.8111 41.4 42.5111 40.2C44.4111 39.7 45.6111 38.7 46.9111 37.7C46.9111 38.5 47.1111 42 46.8111 42.4C46.3111 42.7 45.9111 43 45.4111 43.3C44.6111 43.8 43.5111 44.1 42.5111 44.4C41.5111 44.6 40.0111 44.8 38.8111 44.6C38.0111 44.5 37.3111 44.5 36.5111 44.3C33.5111 43.5 31.1111 41.8 29.6111 39.4C28.9111 38.3 28.4111 37 28.0111 35.6C26.3111 28.8 30.3111 22.9 34.5111 20.9C35.5111 20.4 36.6111 20 37.8111 19.8C39.5111 19.4 41.8111 19.5 43.4111 19.8C49.0111 21.1 51.7111 24.5 52.9111 30.2C53.2111 31.5 53.1111 33.1 53.1111 34.7C53.1111 36.7 53.1111 38.7 53.1111 40.7C53.1111 41.9 53.1111 43 53.1111 44.2C51.9111 44.1 50.4111 44.1 48.9111 44.1ZM69.3111 19.4C69.3111 20.8 69.3111 22.2 69.3111 23.6C61.1111 23.5 61.9111 30.6 61.9111 38.5C61.9111 40.3 61.9111 42.2 61.9111 44C60.4111 44 59.0111 44 57.5111 44C57.5111 35.9 57.5111 27.9 57.5111 19.8C58.9111 19.8 60.3111 19.8 61.7111 19.8C61.7111 20.7 61.7111 21.6 61.7111 22.6C61.9111 22.5 63.0111 21.1 63.4111 20.8C64.8111 19.7 66.6111 19.4 69.3111 19.4ZM143.511 44.1C142.011 44.1 140.511 44.1 139.011 44.1C139.011 41.5 139.011 38.9 139.011 36.3C139.011 34.8 139.011 33.4 139.011 31.9C138.411 28.2 137.511 25.8 134.511 24.5C133.411 24 131.611 23.5 129.911 23.8C128.811 24 127.911 24.2 127.111 24.5C124.011 25.9 121.411 30.1 122.911 34.8C124.011 38.3 128.111 41.5 133.111 40.2C134.911 39.7 136.011 38.7 137.311 37.8C137.311 39.3 137.311 40.9 137.311 42.4C135.911 43.2 134.911 44 133.011 44.4C130.811 44.9 127.811 44.6 126.011 43.9C121.511 42.3 119.111 39.3 118.211 34C118.011 32.9 118.011 31.5 118.211 30.5C118.411 29.6 118.511 28.7 118.811 27.9C119.811 25.2 121.511 22.9 123.811 21.5C125.111 20.7 126.611 20.1 128.411 19.7C131.111 19.1 134.311 19.7 136.211 20.5C139.711 22 141.811 24.6 143.011 28.5C143.611 30.7 143.611 33.3 143.611 36.1C143.511 38.7 143.511 41.4 143.511 44.1ZM76.1111 44.1C74.6111 44.1 73.2111 44.1 71.7111 44.1C71.7111 36 71.7111 28 71.7111 19.9C73.2111 19.9 74.6111 19.9 76.1111 19.9C76.1111 27.9 76.1111 36 76.1111 44.1ZM88.0111 19.9C91.5111 19.9 95.0111 19.9 98.5111 19.9C98.5111 21.3 98.5111 22.7 98.5111 24.1C95.0111 24.1 91.4111 24.1 87.8111 24.1C86.1111 24.1 84.0111 24.4 84.3111 26.2C84.7111 28.6 87.9111 28.9 90.1111 29.5C93.9111 30.7 98.0111 31.6 99.3111 35.3C99.5111 35.8 99.7111 36.7 99.6111 37.3C99.4111 38.8 99.4111 39.8 98.8111 40.7C96.6111 44.3 92.5111 43.9 86.8111 43.9C84.5111 43.9 82.1111 43.9 79.8111 43.9C79.8111 42.5 79.8111 41.1 79.8111 39.7C83.6111 39.7 87.5111 39.7 91.3111 39.7C93.1111 39.7 95.4111 39.5 95.1111 37.5C94.8111 35.5 93.2111 35.2 91.4111 34.6C88.5111 33.7 85.3111 33 83.0111 31.6C81.7111 30.8 80.6111 29.6 80.1111 27.9C79.2111 25 80.7111 22.3 82.3111 21.2C83.2111 20.6 84.3111 20.2 85.6111 19.9C86.4111 20 87.2111 19.9 88.0111 19.9Z" fill="white"/>
<path fill-rule="evenodd" clip-rule="evenodd" d="M184.911 50.8C188.311 50.8 191.711 50 195.111 48.3C195.511 48.1 197.611 46.8 199.011 45.3C199.911 44.3 200.611 43.3 200.611 43.3C206.411 42.5 210.211 35.7 209.911 30.3C209.711 26.3 207.911 22.4 205.011 20.2C203.211 21.1 201.211 21.7 199.211 22.1C201.111 22.8 203.911 24.4 204.911 28C205.111 28.8 205.311 29.7 205.311 30.7C205.211 36.3 200.111 40.2 194.611 39.2C191.911 38.7 189.711 36.9 188.511 34.5C187.711 32.9 187.311 31.1 187.811 28.8C187.911 28.6 187.911 28.3 188.011 28C188.111 27.8 188.211 27.5 188.311 27.2C189.911 23.5 193.211 21.5 197.211 20.3C203.611 18.8 208.511 17.1 208.511 8.5C206.511 13.2 197.411 12.7 194.011 14.2C191.111 13.2 187.811 13.1 184.911 13.1C181.911 13.1 178.711 13.2 175.811 14.2C172.411 12.8 163.411 13.2 161.311 8.5C161.311 17 166.211 18.8 172.611 20.3C176.611 21.5 179.911 23.5 181.511 27.2C181.611 27.5 181.711 27.7 181.811 28C181.911 28.3 181.911 28.5 182.011 28.8C182.511 31.2 182.111 32.9 181.311 34.5C180.111 37 178.011 38.7 175.211 39.2C169.711 40.2 164.611 36.3 164.511 30.7C164.511 29.7 164.611 28.8 164.911 28C165.911 24.5 168.711 22.9 170.611 22.1C168.511 21.7 166.611 21 164.811 20.2C162.011 22.4 160.111 26.3 159.911 30.3C159.611 35.7 163.411 42.5 169.211 43.3C169.211 43.3 169.811 44.3 170.811 45.3C172.211 46.7 174.311 48.1 174.711 48.3C178.111 50 181.511 50.8 184.911 50.8ZM177.211 30.4C177.211 32.5 175.511 34.3 173.311 34.3C171.211 34.3 169.411 32.6 169.411 30.4C169.411 28.3 171.111 26.5 173.311 26.5C175.511 26.5 177.211 28.3 177.211 30.4ZM192.611 30.4C192.611 32.5 194.311 34.3 196.511 34.3C198.611 34.3 200.411 32.6 200.411 30.4C200.411 28.3 198.711 26.5 196.511 26.5C194.311 26.5 192.611 28.3 192.611 30.4ZM184.911 38C186.111 39.8 187.611 41.2 189.411 42.3C187.611 43.4 186.311 45.3 184.911 46.9C183.511 45.3 182.211 43.5 180.411 42.3C182.211 41.2 183.711 39.8 184.911 38Z" fill="white"/>
</svg>
