<svg width="170" height="42" viewBox="0 0 170 42" fill="none" xmlns="http://www.w3.org/2000/svg">
<path fill-rule="evenodd" clip-rule="evenodd" d="M58.2373 0.75C58.2373 0.75 58.3178 0.75 58.2373 0.75C58.3178 5.03824 58.3178 9.24706 58.3178 13.5353C57.5932 13.4559 57.0296 12.9794 56.5466 12.6618C54.3728 11.0735 52.9237 7.57941 54.3728 4.24412C54.9364 3.05294 55.822 2.02059 56.8686 1.38529C57.2712 1.06765 57.8347 0.988235 58.2373 0.75ZM60.8135 0.75C62.9873 1.14706 64.5974 3.37059 65.161 5.4353C66.2076 9.08824 63.6313 13.0588 60.8135 13.5353C60.8135 9.24706 60.8135 4.95882 60.8135 0.75ZM0.110142 7.73823C1.31777 7.73823 2.44489 7.73823 3.65252 7.73823C3.65252 11.7882 3.65252 15.8382 3.65252 19.8882C3.65252 20.9206 3.65252 22.0324 3.65252 23.0647C3.65252 28.9412 4.4576 31.9588 9.61014 32.7529C10.8178 32.9912 12.0254 32.5941 12.8305 32.2765C15.2457 31.3235 17.5 28.3853 16.6949 24.7323C16.5339 24.0971 16.3729 23.5412 16.1313 22.9853C15.0847 20.6824 12.0254 18.7765 8.48302 19.7294C7.59743 19.9676 6.87285 20.2853 6.14828 20.6029C5.82624 20.7618 5.50421 21 5.18217 21.1588C5.18217 19.9676 5.18217 18.6971 5.18217 17.5059C5.58472 17.3471 5.98726 17.1088 6.3898 16.95C7.03387 16.7118 7.75845 16.4735 8.48302 16.3147C9.28811 16.1559 10.4152 16.0765 11.3008 16.2353C12.1059 16.3941 12.75 16.3941 13.394 16.5529C15.8093 17.2676 17.661 18.6176 18.8686 20.6029C19.3517 21.3971 19.7542 22.35 20.0762 23.3824C20.6398 25.2882 20.4788 27.9882 19.8347 29.5765C18.4661 32.9912 16.2118 35.2941 12.2669 36.0882C10.9788 36.3265 9.28811 36.3265 8.08048 36.0088C3.73302 35.0559 1.23726 32.3559 0.351667 28.0676C0.0296328 26.7176 0.110142 25.2088 0.110142 23.6206C0.110142 21.7147 0.110142 19.8088 0.110142 17.9029C0.110142 14.4882 0.110142 11.0735 0.110142 7.73823ZM93.5 35.7706C89.8771 35.7706 86.8983 36.0882 84.805 34.5C83.0339 33.0706 82.9534 30.3706 82.9534 27.1941C82.9534 23.9382 82.9534 20.6029 82.9534 17.3471C82.9534 15.5206 82.9534 13.6147 82.9534 11.7882C84.161 11.7882 85.2881 11.7882 86.4957 11.7882C86.4957 13.3765 86.4957 14.9647 86.4957 16.4735C86.4957 16.4735 86.4957 16.4735 86.4957 16.5529C88.8305 16.5529 91.1652 16.5529 93.4194 16.5529C93.4194 17.6647 93.4194 18.7765 93.4194 19.8882C91.7288 19.8882 90.0381 19.8882 88.3474 19.8882C87.9449 19.8882 86.6567 19.8088 86.4957 19.9676C86.4957 22.8265 86.4957 25.6853 86.4957 28.4647C86.4957 29.8941 86.3347 31.3235 87.2203 31.8794C88.2669 32.5941 90.4406 32.3559 92.0508 32.3559C92.5339 32.3559 93.0169 32.3559 93.5 32.3559C93.5 33.5471 93.5 34.6588 93.5 35.7706ZM39.4788 35.7706C39.4788 33.7059 39.4788 31.6412 39.4788 29.5765C39.4788 24.7324 39.2373 21.5559 35.6949 20.1265C34.7288 19.7294 33.2796 19.3323 31.911 19.5706C31.1059 19.7294 30.3813 19.8882 29.6567 20.2059C28.2076 20.9206 27.161 22.1118 26.5169 23.7C26.0339 24.9706 26.0339 27.1941 26.4364 28.5441C27.2415 31.1647 30.5423 33.6265 34.3262 32.6735C35.8559 32.2765 36.822 31.4823 37.8686 30.6882C37.8686 31.3235 38.0296 34.1029 37.7881 34.4206C37.3856 34.6588 37.0635 34.8971 36.661 35.1353C36.0169 35.5324 35.1313 35.7706 34.3262 36.0088C33.5212 36.1676 32.3135 36.3265 31.3474 36.1676C30.7034 36.0882 30.1398 36.0882 29.4957 35.9294C27.0805 35.2941 25.1483 33.9441 23.9406 32.0382C23.3771 31.1647 22.9746 30.1324 22.6525 29.0206C21.2839 23.6206 24.5042 18.9353 27.8856 17.3471C28.6907 16.95 29.5762 16.6324 30.5423 16.4735C31.911 16.1559 33.7627 16.2353 35.0508 16.4735C39.5593 17.5059 41.733 20.2059 42.6991 24.7323C42.9406 25.7647 42.8601 27.0353 42.8601 28.3059C42.8601 29.8941 42.8601 31.4823 42.8601 33.0706C42.8601 34.0235 42.8601 34.8971 42.8601 35.85C41.894 35.7706 40.6864 35.7706 39.4788 35.7706ZM55.9025 16.1559C55.9025 17.2676 55.9025 18.3794 55.9025 19.4912C49.3008 19.4118 49.9449 25.05 49.9449 31.3235C49.9449 32.7529 49.9449 34.2618 49.9449 35.6912C48.7373 35.6912 47.6101 35.6912 46.4025 35.6912C46.4025 29.2588 46.4025 22.9059 46.4025 16.4735C47.5296 16.4735 48.6567 16.4735 49.7839 16.4735C49.7839 17.1882 49.7839 17.9029 49.7839 18.6971C49.9449 18.6176 50.8305 17.5059 51.1525 17.2676C52.2796 16.3941 53.7288 16.1559 55.9025 16.1559ZM115.64 35.7706C114.432 35.7706 113.225 35.7706 112.017 35.7706C112.017 33.7059 112.017 31.6412 112.017 29.5765C112.017 28.3853 112.017 27.2735 112.017 26.0824C111.534 23.1441 110.809 21.2382 108.394 20.2059C107.508 19.8088 106.059 19.4118 104.691 19.65C103.805 19.8088 103.08 19.9676 102.436 20.2059C99.9406 21.3176 97.8474 24.6529 99.055 28.3853C99.9406 31.1647 103.241 33.7059 107.267 32.6735C108.716 32.2765 109.602 31.4824 110.648 30.7676C110.648 31.9588 110.648 33.2294 110.648 34.4206C109.521 35.0559 108.716 35.6912 107.186 36.0088C105.415 36.4059 103 36.1676 101.551 35.6118C97.9279 34.3412 95.9957 31.9588 95.2711 27.75C95.1101 26.8765 95.1101 25.7647 95.2711 24.9706C95.4322 24.2559 95.5127 23.5412 95.7542 22.9059C96.5593 20.7618 97.9279 18.9353 99.7796 17.8235C100.826 17.1882 102.034 16.7118 103.483 16.3941C105.657 15.9176 108.233 16.3941 109.763 17.0294C112.58 18.2206 114.271 20.2853 115.237 23.3824C115.72 25.1294 115.72 27.1941 115.72 29.4176C115.64 31.4824 115.64 33.6265 115.64 35.7706ZM61.3771 35.7706C60.1695 35.7706 59.0423 35.7706 57.8347 35.7706C57.8347 29.3382 57.8347 22.9853 57.8347 16.5529C59.0423 16.5529 60.1695 16.5529 61.3771 16.5529C61.3771 22.9059 61.3771 29.3382 61.3771 35.7706ZM70.9576 16.5529C73.7754 16.5529 76.5932 16.5529 79.411 16.5529C79.411 17.6647 79.411 18.7765 79.411 19.8882C76.5932 19.8882 73.6949 19.8882 70.7966 19.8882C69.4279 19.8882 67.7373 20.1265 67.9788 21.5559C68.3008 23.4618 70.8771 23.7 72.6483 24.1765C75.7076 25.1294 79.0084 25.8441 80.0551 28.7824C80.2161 29.1794 80.3771 29.8941 80.2966 30.3706C80.1356 31.5618 80.1356 32.3559 79.6525 33.0706C77.8813 35.9294 74.5805 35.6118 69.9915 35.6118C68.1398 35.6118 66.2076 35.6118 64.3559 35.6118C64.3559 34.5 64.3559 33.3882 64.3559 32.2765C67.4152 32.2765 70.5551 32.2765 73.6144 32.2765C75.0635 32.2765 76.9152 32.1176 76.6737 30.5294C76.4322 28.9412 75.144 28.7029 73.6949 28.2265C71.3601 27.5118 68.7839 26.9559 66.9322 25.8441C65.8856 25.2088 65 24.2559 64.5974 22.9059C63.8728 20.6029 65.0805 18.4588 66.3686 17.5853C67.0932 17.1088 67.9788 16.7912 69.0254 16.5529C69.6695 16.6324 70.3135 16.5529 70.9576 16.5529Z" fill="#0D0E0F"/>
<path fill-rule="evenodd" clip-rule="evenodd" d="M148.97 41.0912C151.708 41.0912 154.445 40.4559 157.182 39.1059C157.504 38.9471 159.195 37.9147 160.322 36.7235C161.047 35.9294 161.61 35.1353 161.61 35.1353C166.28 34.5 169.339 29.1 169.097 24.8118C168.936 21.6353 167.487 18.5382 165.153 16.7912C163.703 17.5059 162.093 17.9824 160.483 18.3C162.013 18.8559 164.267 20.1265 165.072 22.9853C165.233 23.6206 165.394 24.3353 165.394 25.1294C165.314 29.5765 161.208 32.6735 156.78 31.8794C154.606 31.4823 152.835 30.0529 151.869 28.1471C151.225 26.8765 150.903 25.4471 151.305 23.6206C151.386 23.4618 151.386 23.2235 151.466 22.9853C151.547 22.8265 151.627 22.5882 151.708 22.35C152.996 19.4118 155.652 17.8235 158.873 16.8706C164.025 15.6794 167.97 14.3294 167.97 7.5C166.36 11.2324 159.034 10.8353 156.297 12.0265C153.962 11.2324 151.305 11.1529 148.97 11.1529C146.555 11.1529 143.979 11.2324 141.644 12.0265C138.907 10.9147 131.661 11.2324 129.97 7.5C129.97 14.25 133.915 15.6794 139.068 16.8706C142.288 17.8235 144.945 19.4118 146.233 22.35C146.314 22.5882 146.394 22.7471 146.475 22.9853C146.555 23.2235 146.555 23.3824 146.636 23.6206C147.038 25.5265 146.716 26.8765 146.072 28.1471C145.106 30.1324 143.415 31.4823 141.161 31.8794C136.733 32.6735 132.627 29.5765 132.547 25.1294C132.547 24.3353 132.627 23.6206 132.869 22.9853C133.674 20.2059 135.928 18.9353 137.458 18.3C135.767 17.9824 134.237 17.4265 132.788 16.7912C130.534 18.5382 129.004 21.6353 128.843 24.8118C128.602 29.1 131.661 34.5 136.33 35.1353C136.33 35.1353 136.814 35.9294 137.619 36.7235C138.746 37.8353 140.436 38.9471 140.758 39.1059C143.496 40.4559 146.233 41.0912 148.97 41.0912ZM142.771 24.8912C142.771 26.5588 141.403 27.9882 139.631 27.9882C137.941 27.9882 136.491 26.6382 136.491 24.8912C136.491 23.2235 137.86 21.7941 139.631 21.7941C141.403 21.7941 142.771 23.2235 142.771 24.8912ZM155.169 24.8912C155.169 26.5588 156.538 27.9882 158.309 27.9882C160 27.9882 161.449 26.6382 161.449 24.8912C161.449 23.2235 160.08 21.7941 158.309 21.7941C156.538 21.7941 155.169 23.2235 155.169 24.8912ZM148.97 30.9265C149.936 32.3559 151.144 33.4676 152.593 34.3412C151.144 35.2147 150.097 36.7235 148.97 37.9941C147.843 36.7235 146.797 35.2941 145.347 34.3412C146.797 33.4676 148.004 32.3559 148.97 30.9265Z" fill="#0D0E0F"/>
</svg>
