<svg width="42" height="41" viewBox="0 0 42 41" fill="none" xmlns="http://www.w3.org/2000/svg">
<g clip-path="url(#clip0)">
<path d="M9.11954 23.0536C9.29606 23.2332 9.50023 23.3241 9.73177 23.3261C9.9633 23.3282 10.169 23.2409 10.3487 23.0644L20.9421 12.656L31.3507 23.2497C31.5272 23.4292 31.7314 23.5201 31.9626 23.5222C32.1945 23.5242 32.4002 23.4369 32.5798 23.2605L33.9275 21.9362C34.107 21.7597 34.1973 21.5554 34.1993 21.3243C34.2014 21.0927 34.1142 20.8869 33.9383 20.7074L21.5961 8.14617C21.4197 7.96622 21.2159 7.87579 20.9843 7.87375C20.7528 7.87171 20.547 7.95881 20.3674 8.13533L7.80649 20.4768C7.62654 20.6533 7.53583 20.8572 7.53378 21.0893C7.53174 21.3203 7.61912 21.526 7.79565 21.7057L9.11954 23.0536Z" fill="#FEFEFE"/>
<path d="M21.5058 18.4067C21.3294 18.2268 21.1255 18.136 20.894 18.134C20.6625 18.132 20.4566 18.2193 20.277 18.3959L7.71615 30.7373C7.53621 30.9139 7.44549 31.1179 7.44345 31.3498C7.44141 31.5812 7.52879 31.7868 7.70531 31.9665L9.0292 33.3143C9.20573 33.494 9.4099 33.5842 9.64144 33.5863C9.87297 33.5883 10.0787 33.5011 10.2584 33.3252L20.8518 22.9165L31.2604 33.5104C31.4368 33.6901 31.6411 33.7807 31.8723 33.7827C32.1042 33.7848 32.3099 33.6979 32.4895 33.5212L33.8371 32.197C34.0167 32.0204 34.1069 31.8163 34.109 31.585C34.111 31.3531 34.0238 31.1475 33.848 30.9678L21.5058 18.4067Z" fill="#FEFEFE"/>
</g>
<defs>
<clipPath id="clip0">
<rect width="26.6667" height="26.6667" fill="white" transform="translate(7.65527 7.3288) rotate(0.505287)"/>
</clipPath>
</defs>
</svg>
