<svg width="13" height="15" viewBox="0 0 13 15" fill="none" xmlns="http://www.w3.org/2000/svg">
<rect y="0.0291748" width="12.0039" height="14.0818" fill="white"/>
<g clip-path="url(#clip0)">
<path d="M0.821475 11.8705H2.73122V13.791C2.73122 13.8845 2.75671 13.961 2.80798 14.0208C2.85911 14.0809 2.92448 14.111 3.00411 14.111H4.4278C4.50169 14.111 4.56562 14.0809 4.61962 14.0208C4.67363 13.961 4.70055 13.8844 4.70055 13.791V11.8705H9.00591C9.08538 11.8705 9.15077 11.8408 9.20202 11.7806C9.25332 11.7205 9.27878 11.644 9.27878 11.5505V10.2703C9.27878 10.1774 9.25332 10.1004 9.20202 10.0406C9.15091 9.98041 9.08538 9.95032 9.00591 9.95032H4.70041V8.77011H7.59908C8.73575 8.77011 9.66347 8.3638 10.3827 7.55002C11.1016 6.73709 11.4612 5.68698 11.4612 4.39964C11.4612 3.11316 11.1016 2.06303 10.3827 1.24927C9.66361 0.436315 8.73573 0.0291748 7.59908 0.0291748H3.00397C2.92432 0.0291748 2.85909 0.0592362 2.80784 0.119055C2.75671 0.179206 2.73108 0.256223 2.73108 0.34914V6.64012H0.821475C0.741846 6.64012 0.676594 6.67172 0.625343 6.73505C0.574233 6.7984 0.548584 6.8734 0.548584 6.96005V8.45009C0.548584 8.54353 0.574068 8.62008 0.625343 8.6802C0.676617 8.74038 0.741705 8.77009 0.821475 8.77009H2.73122V9.95029H0.821475C0.741846 9.95029 0.676594 9.98038 0.625343 10.0406C0.574233 10.1004 0.548584 10.1772 0.548584 10.2703V11.5505C0.548584 11.6439 0.574068 11.7205 0.625343 11.7806C0.676594 11.8408 0.741822 11.8705 0.821475 11.8705ZM4.70041 2.15967H7.42857C8.03097 2.15967 8.51684 2.36629 8.8864 2.77967C9.25577 3.19307 9.44053 3.73332 9.44053 4.39981C9.44053 5.06663 9.25577 5.60704 8.8864 6.01995C8.51684 6.43369 8.03094 6.64031 7.42857 6.64031H4.70041V2.15967Z" fill="#E33535"/>
</g>
<defs>
<clipPath id="clip0">
<rect width="12.0039" height="14.0818" fill="white" transform="translate(0 0.0291748)"/>
</clipPath>
</defs>
</svg>
